<?xml version="1.0" encoding="utf-8"?>
<!-- Generator: Adobe Illustrator 23.0.5, SVG Export Plug-In . SVG Version: 6.00 Build 0)  -->
<svg version="1.1" id="Capa_1" xmlns="http://www.w3.org/2000/svg" xmlns:xlink="http://www.w3.org/1999/xlink" x="0px" y="0px"
	 viewBox="0 0 512 512" style="enable-background:new 0 0 512 512;" xml:space="preserve">
<style type="text/css">
	.st0{fill:url(#SVGID_1_);}
	.st1{fill:#3B38BF;}
	.st2{fill:url(#SVGID_2_);}
	.st3{fill:url(#SVGID_3_);}
	.st4{fill:none;}
	.st5{fill:url(#SVGID_4_);}
	.st6{fill:#0E0C0A;}
	.st7{fill:url(#SVGID_5_);}
	.st8{fill:url(#SVGID_6_);}
	.st9{fill:url(#SVGID_7_);}
	.st10{fill:url(#SVGID_8_);}
	.st11{fill:url(#SVGID_9_);}
	.st12{fill:url(#SVGID_10_);}
</style>
<g>
	<g>
		<g>
			<linearGradient id="SVGID_1_" gradientUnits="userSpaceOnUse" x1="259.5975" y1="1.0699" x2="259.5975" y2="513.0699">
				<stop  offset="0" style="stop-color:#3B38BF"/>
				<stop  offset="3.924293e-02" style="stop-color:#3B38BF;stop-opacity:0.8292"/>
				<stop  offset="4.594617e-02" style="stop-color:#3B38BF;stop-opacity:0.8"/>
				<stop  offset="0.8627" style="stop-color:#3B38BF;stop-opacity:0.5432"/>
				<stop  offset="1" style="stop-color:#3B38BF;stop-opacity:0.5"/>
			</linearGradient>
			<path class="st0" d="M470.7,95l-91-91c-1.9-1.9-4.4-2.9-7.1-2.9h-297c-16.5,0-30,13.5-30,30v452c0,16.5,13.5,30,30,30h312
				c5.5,0,10-4.5,10-10s-4.5-10-10-10h-312c-5.5,0-10-4.5-10-10v-414h69.7c5.5,0,10-4.5,10-10s-4.5-10-10-10H65.6v-18
				c0-5.5,4.5-10,10-10h287v61c0,16.5,13.5,30,30,30h61v192c0,5.5,4.5,10,10,10s10-4.5,10-10v-202C473.6,99.4,472.5,96.9,470.7,95z
				 M392.6,92.1c-5.5,0-10-4.5-10-10V35.2l56.9,56.9H392.6z"/>
		</g>
	</g>
</g>
<g>
	<g>
		<g>
			<path class="st1" d="M470.7,334.5c-1.9-1.9-4.4-2.9-7.1-2.9s-5.2,1.1-7.1,2.9c-1.9,1.9-2.9,4.4-2.9,7.1s1.1,5.2,2.9,7.1
				c1.9,1.9,4.4,2.9,7.1,2.9s5.2-1.1,7.1-2.9c1.9-1.9,2.9-4.4,2.9-7.1S472.5,336.4,470.7,334.5z"/>
		</g>
	</g>
</g>
<g>
	<g>
		<g>
			<path class="st1" d="M178,52c-1.9-1.9-4.4-2.9-7.1-2.9c-2.6,0-5.2,1.1-7.1,2.9s-2.9,4.4-2.9,7.1s1.1,5.2,2.9,7.1s4.4,2.9,7.1,2.9
				c2.6,0,5.2-1.1,7.1-2.9c1.9-1.9,2.9-4.4,2.9-7.1S179.9,53.9,178,52z"/>
		</g>
	</g>
</g>
<g>
	<linearGradient id="SVGID_2_" gradientUnits="userSpaceOnUse" x1="310.2195" y1="303.7777" x2="330.538" y2="303.7777">
		<stop  offset="0" style="stop-color:#FFFFFF"/>
		<stop  offset="1" style="stop-color:#FFFFFF;stop-opacity:0"/>
	</linearGradient>
	<polygon class="st2" points="310.2,293.6 330.5,313.9 330.5,313.9 310.2,293.6 	"/>
	<linearGradient id="SVGID_3_" gradientUnits="userSpaceOnUse" x1="310.2195" y1="303.7777" x2="330.538" y2="303.7777">
		<stop  offset="0" style="stop-color:#FFFFFF"/>
		<stop  offset="1" style="stop-color:#FFFFFF;stop-opacity:0"/>
	</linearGradient>
	<polygon class="st3" points="310.2,293.6 310.2,293.6 330.5,313.9 330.5,313.9 	"/>
	<polygon class="st4" points="364.6,376.4 377.1,388.9 364.6,376.4 	"/>
	<linearGradient id="SVGID_4_" gradientUnits="userSpaceOnUse" x1="316.0298" y1="334.9578" x2="330.2619" y2="334.9578">
		<stop  offset="0" style="stop-color:#FFFFFF"/>
		<stop  offset="1" style="stop-color:#FFFFFF;stop-opacity:0"/>
	</linearGradient>
	<polygon class="st5" points="330.3,342.1 330.3,342.1 316,327.8 316,327.8 	"/>
	<path class="st6" d="M505.9,422.8l-45.8-45.8c-1.9-1.9-4.4-2.9-7.1-2.9l-62.3-0.1l-12.2-12.2c0,0,0,0,0.1-0.1l-14.2-14.2
		c0,0,0,0-0.1,0.1l-20.2-20.2c0,0,0,0,0.1-0.1l-13.9-13.9l-0.3-0.3c0,0,0,0-0.1,0.1l-20.3-20.3c0,0,0,0,0-0.1l-14.3-14.3
		c0,0,0,0,0,0.1l-32.2-32.2c-3.9-3.9-10.2-3.9-14.1,0c-3.9,3.9-3.9,10.2,0,14.1l31.8,31.8c0,0,0,0,0,0l14.4,14.4c0,0,0,0,0,0
		l20.3,20.3c0,0,0,0,0,0l14.2,14.2c0,0,0,0,0,0l20.2,20.2c0,0,0,0,0,0l14.2,14.2c0,0,0,0,0,0l12.5,12.5l0.1,62.3
		c0,2.6,1.1,5.2,2.9,7.1l45.8,45.8c4,4,9.2,6.1,14.6,6.1c2.7,0,5.4-0.5,7.9-1.6c7.8-3.2,12.8-10.7,12.8-19.1l0-30.6l30.6,0
		c0,0,0,0,0,0c8.4,0,15.9-5,19.1-12.8C513.6,437.5,511.9,428.7,505.9,422.8z M440.3,489.3c-0.4,0.2-0.6,0-0.7-0.1l-42.9-42.9l0-38.1
		l1.5,1.5l0,0l42.6,42.6l0,36.5C440.7,488.9,440.7,489.1,440.3,489.3z M491.9,437.6c-0.2,0.4-0.4,0.4-0.6,0.4l-36.5,0l-44-44l38.1,0
		l42.9,42.9C492,437.1,492.1,437.2,491.9,437.6z"/>
	<linearGradient id="SVGID_5_" gradientUnits="userSpaceOnUse" x1="350.414" y1="369.3155" x2="364.6054" y2="369.3155">
		<stop  offset="0" style="stop-color:#FFFFFF"/>
		<stop  offset="1" style="stop-color:#FFFFFF;stop-opacity:0"/>
	</linearGradient>
	<polygon class="st7" points="350.4,362.2 364.6,376.4 364.6,376.4 350.4,362.2 	"/>
	<linearGradient id="SVGID_6_" gradientUnits="userSpaceOnUse" x1="108.6551" y1="101.2717" x2="373.7695" y2="375.4289">
		<stop  offset="0" style="stop-color:#3B38BF"/>
		<stop  offset="0.9964" style="stop-color:#3B38BF;stop-opacity:0"/>
	</linearGradient>
	<path class="st8" d="M266.5,395.8v-28.1c24.1-2,46.1-11.3,63.8-25.6L316,327.8c-16.4,12.7-37.1,20.3-59.5,20.3
		c-53,0-96.1-42.2-96.1-94c0-51.8,43.1-94,96.1-94s96.1,42.2,96.1,94c0,22.7-8.3,43.5-22,59.8l14.2,14.2
		c15.3-17.5,25.2-39.7,27.4-64h29c-2.3,32.2-15.6,61.4-36.2,84.2l14.2,14.2c24.2-26.4,39.7-60.6,42.1-98.3h9c5.5,0,10-4.5,10-10
		c0-5.5-4.5-10-10-10h-9c-5.1-81.4-71.7-146.8-154.7-151.7v-12c0-5.5-4.5-10-10-10c-5.5,0-10,4.5-10,10v12
		c-83,4.9-149.6,70.3-154.7,151.7h-9c-5.5,0-10,4.5-10,10c0,5.5,4.5,10,10,10h9c5.1,81.4,71.7,146.8,154.7,151.7v12
		c0,5.5,4.5,10,10,10c5.5,0,10-4.5,10-10v-12c37.4-2.2,71.5-16.7,98.1-39.4l-14.2-14.2C327.5,381.4,298.4,393.7,266.5,395.8z
		 M266.5,112.5c71.9,4.8,129.6,61.2,134.6,131.7h-29c-4.9-55-49.6-98.9-105.6-103.6V112.5z M246.5,112.5v28.1
		c-56,4.7-100.7,48.6-105.6,103.6h-29C116.9,173.7,174.6,117.3,246.5,112.5z M246.5,395.8c-71.9-4.8-129.6-61.2-134.6-131.7h29
		c4.9,55,49.6,98.9,105.6,103.6V395.8z"/>
	<linearGradient id="SVGID_7_" gradientUnits="userSpaceOnUse" x1="330.538" y1="314.0949" x2="330.8575" y2="314.0949">
		<stop  offset="0" style="stop-color:#FFFFFF"/>
		<stop  offset="1" style="stop-color:#FFFFFF;stop-opacity:0"/>
	</linearGradient>
	<polygon class="st9" points="330.5,313.9 330.9,314.3 330.5,313.9 	"/>
	<linearGradient id="SVGID_8_" gradientUnits="userSpaceOnUse" x1="330.8575" y1="321.1807" x2="344.7121" y2="321.1807">
		<stop  offset="0" style="stop-color:#FFFFFF"/>
		<stop  offset="1" style="stop-color:#FFFFFF;stop-opacity:0"/>
	</linearGradient>
	<polygon class="st10" points="330.9,314.3 344.7,328.1 344.7,328.1 	"/>
	<linearGradient id="SVGID_9_" gradientUnits="userSpaceOnUse" x1="330.538" y1="321.0209" x2="344.7121" y2="321.0209">
		<stop  offset="0" style="stop-color:#FFFFFF"/>
		<stop  offset="1" style="stop-color:#FFFFFF;stop-opacity:0"/>
	</linearGradient>
	<polygon class="st11" points="344.7,328.1 330.5,313.9 330.5,313.9 330.9,314.3 344.7,328.1 	"/>
	<polygon points="364.9,348.3 379.1,362.5 379.1,362.5 364.9,348.3 	"/>
	<linearGradient id="SVGID_10_" gradientUnits="userSpaceOnUse" x1="256.5759" y1="254.2338" x2="293.5516" y2="291.047">
		<stop  offset="0" style="stop-color:#3B38BF"/>
		<stop  offset="1" style="stop-color:#3B38BF;stop-opacity:0.3"/>
	</linearGradient>
	<path class="st12" d="M323.6,254.1c0-36.4-30.1-66-67.1-66c-37,0-67.1,29.6-67.1,66s30.1,66,67.1,66c14.7,0,28.2-4.7,39.3-12.5
		l-14.4-14.4c-7.2,4.4-15.7,7-24.9,7c-26,0-47.1-20.6-47.1-46s21.1-46,47.1-46c26,0,47.1,20.6,47.1,46c0,9.3-2.8,17.9-7.7,25.2
		l14.3,14.3C318.6,282.6,323.6,268.9,323.6,254.1z"/>
	<polygon points="364.9,348.3 379.1,362.5 379.1,362.5 364.9,348.3 	"/>
</g>
</svg>
