<?xml version="1.0" encoding="utf-8"?>
<!-- Generator: Adobe Illustrator 23.0.5, SVG Export Plug-In . SVG Version: 6.00 Build 0)  -->
<svg version="1.1" id="Outline" xmlns="http://www.w3.org/2000/svg" xmlns:xlink="http://www.w3.org/1999/xlink" x="0px" y="0px"
	 viewBox="0 0 512 512" style="enable-background:new 0 0 512 512;" xml:space="preserve">
<style type="text/css">
	.st0{fill:#FFFFFF;}
	.st1{fill:#6ABB9F;}
	.st2{fill:url(#SVGID_1_);}
	.st3{fill:url(#SVGID_2_);}
	.st4{fill:url(#SVGID_3_);}
	.st5{opacity:0.1;fill:#FFFFFF;}
	.st6{fill:url(#SVGID_4_);}
	.st7{fill:url(#SVGID_5_);}
	.st8{fill:url(#SVGID_6_);}
	.st9{fill:url(#SVGID_7_);}
</style>
<path class="st0" d="M221,251.7c-24.2-19.3-28.1-54.5-8.8-78.7s54.5-28.1,78.7-8.8s28.1,54.5,8.8,78.7c-2.6,3.2-5.5,6.2-8.8,8.8
	c-3.7,2.4-4.7,7.4-2.3,11.1c2.4,3.7,7.4,4.7,11.1,2.3c0.5-0.3,0.9-0.6,1.3-1c31-24.9,35.9-70.2,11-101.2s-70.2-35.9-101.2-11
	s-35.9,70.2-11,101.2c2.5,3.1,5.2,6,8.2,8.6v19.8c-12.5,4.5-18.9,18.3-14.4,30.7c3.4,9.4,12.3,15.7,22.4,15.8h0.8
	c4.4,21.6,25.5,35.6,47.2,31.2c15.7-3.2,28-15.5,31.2-31.2h0.8c13.3,0,24-10.7,24-24s-10.7-24-24-24h-16v-51l11.6-5.8
	c2.7-1.4,4.4-4.1,4.4-7.1v-24c0.1-4.4-3.3-8.1-7.8-8.2c-0.7,0-1.5,0.1-2.2,0.2l-30.1,8l-30.1-8c-2.4-0.6-4.9-0.1-6.9,1.4
	c-2,1.6-3.1,4-3,6.6v24c0,3,1.7,5.8,4.4,7.1L232,229v27c0,4.4,3.6,8,8,8s8-3.6,8-8v-32c0-3-1.7-5.8-4.4-7.1l-11.6-5.8v-8.8l22.1,5.5
	c1.3,0.3,2.6,0.3,3.8,0l22.1-5.5v8.8l-11.6,5.8c-2.7,1.4-4.4,4.1-4.4,7.1v56h-40v-22.1C224,255.5,222.9,253.2,221,251.7z M256,344
	c-10.2,0-19.2-6.4-22.6-16h45.3C275.2,337.6,266.2,344,256,344z M304,304c0,4.4-3.6,8-8,8h-80c-4.4,0-8-3.6-8-8s3.6-8,8-8h80
	C300.4,296,304,299.6,304,304z"/>
<path class="st1" d="M431.5,170.8c1.2-3.2,0.2-6.7-2.3-8.9l-168-144c-3-2.6-7.4-2.6-10.4,0l-168,144c-3.4,2.9-3.8,7.9-0.9,11.3
	c1.5,1.8,3.7,2.8,6.1,2.8h56v312c0,4.4,3.6,8,8,8s8-3.6,8-8V168c0-4.4-3.6-8-8-8h-42.4L256,34.6L402.4,160H360c-4.4,0-8,3.6-8,8v320
	c0,4.4,3.6,8,8,8s8-3.6,8-8V176h56C427.3,176,430.3,174,431.5,170.8z"/>
<linearGradient id="SVGID_1_" gradientUnits="userSpaceOnUse" x1="16.0108" y1="312.0211" x2="127.9994" y2="312.0211">
	<stop  offset="0" style="stop-color:#FFFFFF"/>
	<stop  offset="0.9104" style="stop-color:#FFFFFF;stop-opacity:0.3627"/>
	<stop  offset="1" style="stop-color:#FFFFFF;stop-opacity:0.3"/>
</linearGradient>
<path class="st2" d="M88,288h32c4.4,0,8-3.6,8-8s-3.6-8-8-8H96v-16c0-4.4-3.6-8-8-8c-1.9,0-3.8,0.7-5.3,2l-64,56
	c-3.3,2.9-3.6,8-0.7,11.3c0.2,0.3,0.5,0.5,0.7,0.7l64,56c2.4,2.1,5.7,2.6,8.6,1.3c2.9-1.3,4.7-4.1,4.7-7.3v-16h24c4.4,0,8-3.6,8-8
	s-3.6-8-8-8H88c-4.4,0-8,3.6-8,8v6.4L36.2,312L80,273.6v6.4C80,284.4,83.6,288,88,288z"/>
<linearGradient id="SVGID_2_" gradientUnits="userSpaceOnUse" x1="71.9994" y1="16.4227" x2="71.9994" y2="259.0632">
	<stop  offset="0" style="stop-color:#FFFFFF"/>
	<stop  offset="0.9104" style="stop-color:#FFFFFF;stop-opacity:8.962709e-02"/>
	<stop  offset="1" style="stop-color:#FFFFFF;stop-opacity:0"/>
</linearGradient>
<path class="st3" d="M24,96h16v155c0,4.4,3.6,8,8,8s8-3.6,8-8V88c0-4.4-3.6-8-8-8h-8l32-42.6L104,80h-8c-4.4,0-8,3.6-8,8v33.1
	c0,4.4,3.6,8,8,8s8-3.6,8-8V96h16c3,0,5.8-1.7,7.1-4.4c1.2-2.6,0.9-5.7-0.7-8l-48-64c-2.7-3.5-7.7-4.3-11.2-1.6
	c-0.6,0.5-1.1,1-1.6,1.6l-48,64c-1.7,2.3-1.9,5.4-0.7,8C18.2,94.3,21,96,24,96z"/>
<linearGradient id="SVGID_3_" gradientUnits="userSpaceOnUse" x1="95.9994" y1="192.0232" x2="95.9994" y2="232.0232">
	<stop  offset="0" style="stop-color:#FFFFFF"/>
	<stop  offset="1" style="stop-color:#FFFFFF;stop-opacity:0"/>
</linearGradient>
<path class="st4" d="M96,232c4.4,0,8-3.6,8-8v-24c0-4.4-3.6-8-8-8s-8,3.6-8,8v24C88,228.4,91.6,232,96,232z"/>
<path class="st5" d="M120,408h-16v-8c0-4.4-3.6-8-8-8s-8,3.6-8,8v8c0,8.8,7.2,16,16,16h16c4.4,0,8-3.6,8-8S124.4,408,120,408z"/>
<path class="st5" d="M120,456H96c-22.1,0-40-17.9-40-40v-35c0-4.4-3.6-8-8-8s-8,3.6-8,8v35c0,30.9,25.1,56,56,56h24c4.4,0,8-3.6,8-8
	S124.4,456,120,456z"/>
<linearGradient id="SVGID_4_" gradientUnits="userSpaceOnUse" x1="431.9993" y1="288.0346" x2="431.9993" y2="496.0232">
	<stop  offset="0" style="stop-color:#FFFFFF"/>
	<stop  offset="1" style="stop-color:#FFFFFF;stop-opacity:0"/>
</linearGradient>
<path class="st6" d="M438,290.7c-2.9-3.3-8-3.6-11.3-0.7c-0.3,0.2-0.5,0.5-0.7,0.7l-56,64c-2.9,3.3-2.6,8.4,0.7,11.3
	c1.5,1.3,3.3,2,5.3,2h16v120c0,4.4,3.6,8,8,8s8-3.6,8-8V360c0-4.4-3.6-8-8-8h-6.4l38.4-43.8l38.4,43.8H464c-4.4,0-8,3.6-8,8v128
	c0,4.4,3.6,8,8,8s8-3.6,8-8V368h16c4.4,0,8-3.6,8-8c0-1.9-0.7-3.8-2-5.3L438,290.7z"/>
<linearGradient id="SVGID_5_" gradientUnits="userSpaceOnUse" x1="439.9994" y1="15.9768" x2="439.9994" y2="128.0232">
	<stop  offset="0" style="stop-color:#FFFFFF"/>
	<stop  offset="0.9104" style="stop-color:#FFFFFF;stop-opacity:8.962709e-02"/>
	<stop  offset="1" style="stop-color:#FFFFFF;stop-opacity:0"/>
</linearGradient>
<path class="st7" d="M392,80h16v40c0,4.4,3.6,8,8,8s8-3.6,8-8V72c0-4.4-3.6-8-8-8h-4.7L440,35.3L468.7,64H464c-4.4,0-8,3.6-8,8v48
	c0,4.4,3.6,8,8,8s8-3.6,8-8V80h16c3.2,0,6.1-2,7.4-5c1.3-3,0.6-6.4-1.7-8.7l-48-48c-3.1-3.1-8.2-3.2-11.3,0c0,0,0,0,0,0l-48,48
	c-2.3,2.3-2.9,5.7-1.7,8.7C385.9,78.1,388.8,80,392,80z"/>
<linearGradient id="SVGID_6_" gradientUnits="userSpaceOnUse" x1="463.9994" y1="160.0232" x2="463.9994" y2="216.0232">
	<stop  offset="0" style="stop-color:#FFFFFF"/>
	<stop  offset="1" style="stop-color:#FFFFFF;stop-opacity:0"/>
</linearGradient>
<path class="st8" d="M472,168c0-4.4-3.6-8-8-8s-8,3.6-8,8v40c0,4.4,3.6,8,8,8s8-3.6,8-8V168z"/>
<linearGradient id="SVGID_7_" gradientUnits="userSpaceOnUse" x1="407.9994" y1="192.0232" x2="407.9994" y2="264.0232">
	<stop  offset="0" style="stop-color:#FFFFFF"/>
	<stop  offset="1" style="stop-color:#FFFFFF;stop-opacity:0"/>
</linearGradient>
<path class="st9" d="M400,200v56c0,4.4,3.6,8,8,8s8-3.6,8-8v-56c0-4.4-3.6-8-8-8S400,195.6,400,200z"/>
<circle class="st5" cx="464" cy="240" r="8"/>
<path class="st0" d="M304,368c-4.4,0-8,3.6-8,8v32c0,4.4,3.6,8,8,8s8-3.6,8-8v-32C312,371.6,308.4,368,304,368z"/>
<circle class="st0" cx="304" cy="440" r="8"/>
<path class="st0" d="M208,360c-4.4,0-8,3.6-8,8v32c0,4.4,3.6,8,8,8s8-3.6,8-8v-32C216,363.6,212.4,360,208,360z"/>
<circle class="st0" cx="256" cy="448" r="8"/>
<path class="st0" d="M256,384c-4.4,0-8,3.6-8,8v24c0,4.4,3.6,8,8,8s8-3.6,8-8v-24C264,387.6,260.4,384,256,384z"/>
<path class="st0" d="M208,424c-4.4,0-8,3.6-8,8v16c0,4.4,3.6,8,8,8s8-3.6,8-8v-16C216,427.6,212.4,424,208,424z"/>
</svg>
