<?xml version="1.0" encoding="utf-8"?>
<!-- Generator: Adobe Illustrator 23.0.5, SVG Export Plug-In . SVG Version: 6.00 Build 0)  -->
<svg version="1.1" id="Capa_1" xmlns="http://www.w3.org/2000/svg" xmlns:xlink="http://www.w3.org/1999/xlink" x="0px" y="0px"
	 viewBox="0 0 512 512" style="enable-background:new 0 0 512 512;" xml:space="preserve">
<style type="text/css">
	.st0{fill:#FFFFFF;}
	.st1{fill:url(#SVGID_1_);}
	.st2{fill:#6ABB9F;}
	.st3{fill:url(#SVGID_2_);}
	.st4{opacity:0.8;fill:#FFFFFF;}
</style>
<path class="st0" d="M77.6,65.7c0,4.3-3.5,7.8-7.8,7.8c-4.3,0-7.8-3.5-7.8-7.8s3.5-7.8,7.8-7.8C74.1,57.9,77.6,61.4,77.6,65.7z"/>
<path class="st0" d="M108.8,65.7c0,4.3-3.5,7.8-7.8,7.8c-4.3,0-7.8-3.5-7.8-7.8s3.5-7.8,7.8-7.8C105.3,57.9,108.8,61.4,108.8,65.7z"
	/>
<path class="st0" d="M139.9,65.7c0,4.3-3.5,7.8-7.8,7.8c-4.3,0-7.8-3.5-7.8-7.8s3.5-7.8,7.8-7.8C136.4,57.9,139.9,61.4,139.9,65.7z"
	/>
<path class="st0" d="M186.6,57.9c-4.3,0-7.8,3.5-7.8,7.8s3.5,7.8,7.8,7.8h194.7c4.3,0,7.8-3.5,7.8-7.8s-3.5-7.8-7.8-7.8H186.6z"/>
<linearGradient id="SVGID_1_" gradientUnits="userSpaceOnUse" x1="221.6941" y1="-11.4882" x2="221.6941" y2="393.3824">
	<stop  offset="0" style="stop-color:#FFFFFF;stop-opacity:0.8"/>
	<stop  offset="0.8541" style="stop-color:#FFFFFF;stop-opacity:0.3729"/>
	<stop  offset="1" style="stop-color:#FFFFFF;stop-opacity:0.3"/>
</linearGradient>
<path class="st1" d="M135.4,408.4H38.6V104.6h342.7c4.3,0,7.8-3.5,7.8-7.8c0-4.3-3.5-7.8-7.8-7.8H38.6V42.3h366.1v96.7
	c0,4.3,3.5,7.8,7.8,7.8c4.3,0,7.8-3.5,7.8-7.8V34.5c0-4.3-3.5-7.8-7.8-7.8H30.9c-4.3,0-7.8,3.5-7.8,7.8v381.7c0,4.3,3.5,7.8,7.8,7.8
	h104.5c4.3,0,7.8-3.5,7.8-7.8S139.7,408.4,135.4,408.4z"/>
<path class="st2" d="M488.2,458.7l-42.8-42.5l25.1-16.7c2.6-1.7,3.9-4.7,3.4-7.8c-0.5-3-2.8-5.5-5.8-6.2l-104.6-27.8
	c-2.7-0.7-5.5,0.1-7.5,2c-2,2-2.7,4.8-2,7.5l27.4,104.6c0.8,3,3.2,5.2,6.2,5.8c3,0.5,6.1-0.8,7.8-3.4l17.1-25.1l42.8,42.8
	c1.5,1.5,3.5,2.3,5.5,2.3c2.1,0,4.1-0.8,5.5-2.3l22-22c1.4-1.5,2.2-3.5,2.1-5.6C490.6,462.1,489.7,460.2,488.2,458.7z M460.6,475.3
	l-44.1-44.1c-1.4-1.4-3.4-2.3-5.5-2.3h-0.8c-2.3,0.2-4.4,1.5-5.7,3.4L392.1,451l-19.7-74.9l74.9,19.7l-18.6,12.6
	c-1.9,1.3-3.2,3.4-3.4,5.7c-0.2,2.3,0.6,4.6,2.3,6.2l44.1,44.1L460.6,475.3z"/>
<linearGradient id="SVGID_2_" gradientUnits="userSpaceOnUse" x1="206.6514" y1="174.5051" x2="435.2164" y2="503.1909">
	<stop  offset="0" style="stop-color:#FFFFFF"/>
	<stop  offset="0.4351" style="stop-color:#FFFFFF;stop-opacity:0.9685"/>
	<stop  offset="1" style="stop-color:#FFFFFF;stop-opacity:0"/>
</linearGradient>
<path class="st3" d="M346.8,435.7c-16.2,6.7-33.5,10.7-51.1,11.6v-70.1c11.5,0.3,23,1.2,34.4,2.7c4.3,0.6,8.3-2.4,8.9-6.7
	c0.6-4.3-2.4-8.3-6.7-8.9c-12.1-1.6-24.4-2.5-36.6-2.7v-62.3h77.9c-0.4,12.2-1.6,24.4-3.6,36.5c-0.7,4.3,2.2,8.4,6.5,9.1
	c4.3,0.7,8.4-2.2,9.1-6.5c2.1-12.9,3.3-26,3.6-39h54.5c-0.8,17.5-4.6,34.8-11.2,51.1c-1.6,4,0.3,8.5,4.2,10.1c0.9,0.4,1.9,0.6,3,0.6
	c3.2,0,6.1-1.9,7.2-4.9c8.3-20.6,12.5-42.6,12.4-64.7c0-40.2-14.2-79.1-40-109.9c-32.5-38.9-80.6-61.4-131.3-61.5h-5.6
	c-37.8,1.2-74.2,14.9-103.4,38.9c-3.3,2.7-3.8,7.6-1.1,11c2.7,3.3,7.6,3.8,11,1.1c13.5-11.1,28.8-19.9,45.3-26
	c-13,14.1-23.2,30.6-30.1,48.5c-13.3-3.8-26.3-8.4-38.9-13.9c-3.1-1.3-6.7-0.5-8.9,2c0,0-0.4,0-0.5,0.5c-25.2,30.7-39,69.3-38.9,109
	c0,39.8,13.9,78.4,39.4,109l0.5,0.6c32.4,39.1,80.5,61.8,131.3,61.9c22.2,0,44.2-4.3,64.7-12.8c2.7-0.9,4.8-3.3,5.2-6.1
	c0.5-2.9-0.7-5.7-3-7.5S349.4,434.5,346.8,435.7z M280.1,446.7c-24.8-4-46.7-27.3-60.8-61.5c20-4.7,40.3-7.3,60.8-7.9V446.7z
	 M280.1,361.7c-22.3,0.5-44.6,3.3-66.3,8.5c-7.2-22.9-11.1-46.8-11.6-70.8h77.9V361.7z M132.5,299.4h54.1
	c0.5,25.5,4.6,50.8,12.2,75.1c-11.5,3.4-22.9,7.4-34,12.1C145.4,361.5,134.1,331,132.5,299.4z M356.1,198.1
	c-19.8,4.6-40,7.2-60.4,7.8v-69.3C320.3,140.7,342,164.1,356.1,198.1z M280.1,283.8h-77.9c0.5-24.1,4.4-48,11.7-71
	c21.7,5.3,43.9,8.2,66.2,8.7V283.8z M295.7,221.5c22.2-0.5,44.2-3.3,65.7-8.4c7.2,22.9,11.2,46.7,11.7,70.7h-77.4V221.5z
	 M443.7,283.8h-54.5c-0.5-25.4-4.5-50.7-12.1-75c11.7-3.4,23.2-7.4,34.4-12.2C430.9,221.7,442.1,252.1,443.7,283.8z M400.8,184.2
	c-9.5,3.8-19.2,7.2-29.1,10c-6.8-18.1-17.1-34.6-30.2-48.8c22.3,8.3,42.5,21.6,58.9,38.8H400.8z M280.1,136.5v69.4
	c-20.5-0.5-40.9-3.1-60.8-7.8C233.4,163.8,255.3,140.5,280.1,136.5z M186.6,283.8h-54.5c1.6-31.7,12.8-62.1,32.2-87.2
	c11.1,4.7,22.5,8.7,34,12.1C190.9,233,187,258.3,186.6,283.8z M175.3,399c9.4-3.8,18.9-7,28.6-9.8c6.8,17.8,17,34.2,29.9,48.3
	C211.7,429.3,191.7,416.1,175.3,399z"/>
<path class="st4" d="M471.6,216.6c1.2,2.9,4,4.8,7.2,4.8c1,0,2-0.2,3-0.6c3.9-1.7,5.8-6.2,4.2-10.1c-8-19.4-18.9-37.4-32.4-53.5
	c-2.9-2.6-7.2-2.7-10.1-0.2c-3,2.4-3.7,6.7-1.8,10C454.1,181.9,464.2,198.7,471.6,216.6z"/>
<path class="st4" d="M130,157.2C98.7,195,81.5,242.5,81.5,291.6c0,4.3,3.5,7.8,7.8,7.8c4.3,0,7.8-3.5,7.8-7.8
	c0-45.5,15.9-89.6,44.9-124.6c2.8-3.3,2.3-8.2-1-11c-3.3-2.8-8.2-2.3-11,1V157.2z"/>
</svg>
