<?xml version="1.0" encoding="utf-8"?>
<!-- Generator: Adobe Illustrator 23.0.5, SVG Export Plug-In . SVG Version: 6.00 Build 0)  -->
<svg version="1.1" id="Capa_1" xmlns="http://www.w3.org/2000/svg" xmlns:xlink="http://www.w3.org/1999/xlink" x="0px" y="0px"
	 viewBox="0 0 512 512" style="enable-background:new 0 0 512 512;" xml:space="preserve">
<style type="text/css">
	.st0{fill:#3B38BF;}
	.st1{fill:url(#SVGID_1_);}
	.st2{fill:#0E0C0A;}
	.st3{fill:url(#SVGID_2_);}
	.st4{opacity:0.8;fill:#3B38BF;}
</style>
<path class="st0" d="M69.2,49.5c0,4.6-3.7,8.3-8.3,8.3s-8.3-3.7-8.3-8.3s3.7-8.3,8.3-8.3S69.2,44.9,69.2,49.5z"/>
<path class="st0" d="M102.3,49.5c0,4.6-3.7,8.3-8.3,8.3s-8.3-3.7-8.3-8.3s3.7-8.3,8.3-8.3S102.3,44.9,102.3,49.5z"/>
<path class="st0" d="M135.5,49.5c0,4.6-3.7,8.3-8.3,8.3s-8.3-3.7-8.3-8.3s3.7-8.3,8.3-8.3S135.5,44.9,135.5,49.5z"/>
<path class="st0" d="M185.3,41.2c-4.6,0-8.3,3.7-8.3,8.3s3.7,8.3,8.3,8.3h207.3c4.6,0,8.3-3.7,8.3-8.3s-3.7-8.3-8.3-8.3H185.3z"/>
<linearGradient id="SVGID_1_" gradientUnits="userSpaceOnUse" x1="222.6051" y1="-32.7033" x2="222.6051" y2="398.3908">
	<stop  offset="0" style="stop-color:#3B38BF;stop-opacity:0.8"/>
	<stop  offset="0.8541" style="stop-color:#3B38BF;stop-opacity:0.3729"/>
	<stop  offset="1" style="stop-color:#3B38BF;stop-opacity:0.3"/>
</linearGradient>
<path class="st1" d="M130.7,414.4h-103V90.9h364.9c4.6,0,8.3-3.7,8.3-8.3s-3.7-8.3-8.3-8.3H27.7V24.6h389.8v103
	c0,4.6,3.7,8.3,8.3,8.3c4.6,0,8.3-3.7,8.3-8.3V16.3c0-4.6-3.7-8.3-8.3-8.3H19.4c-4.6,0-8.3,3.7-8.3,8.3v406.4c0,4.6,3.7,8.3,8.3,8.3
	h111.3c4.6,0,8.3-3.7,8.3-8.3C139,418.1,135.3,414.4,130.7,414.4z"/>
<path class="st2" d="M506.3,468l-45.6-45.3l26.7-17.8c2.7-1.8,4.2-5,3.6-8.3c-0.6-3.2-3-5.8-6.1-6.6l-111.4-29.6
	c-2.9-0.7-5.9,0.1-8,2.2c-2.1,2.1-2.9,5.1-2.2,8l29.2,111.4c0.8,3.2,3.4,5.6,6.6,6.1c3.2,0.5,6.5-0.9,8.3-3.6l18.2-26.7l45.6,45.6
	c1.6,1.6,3.7,2.4,5.9,2.4c2.2,0,4.3-0.9,5.9-2.4l23.5-23.5c1.5-1.6,2.4-3.7,2.3-6C508.9,471.6,507.9,469.5,506.3,468z M477,485.6
	L430,438.7c-1.5-1.5-3.6-2.4-5.8-2.4h-0.8c-2.5,0.3-4.7,1.6-6.1,3.6l-13.3,19.8l-21-79.8l79.8,21l-19.8,13.4
	c-2.1,1.4-3.4,3.6-3.6,6.1c-0.2,2.5,0.7,4.9,2.4,6.6l46.9,46.9L477,485.6z"/>
<linearGradient id="SVGID_2_" gradientUnits="userSpaceOnUse" x1="206.588" y1="165.3369" x2="449.9572" y2="515.3118">
	<stop  offset="0" style="stop-color:#3B38BF"/>
	<stop  offset="0.4351" style="stop-color:#3B38BF;stop-opacity:0.97"/>
	<stop  offset="1" style="stop-color:#3B38BF;stop-opacity:0"/>
</linearGradient>
<path class="st3" d="M355.8,443.5c-17.3,7.2-35.7,11.4-54.4,12.4v-74.6c12.3,0.3,24.5,1.3,36.7,2.9c4.6,0.6,8.8-2.6,9.5-7.1
	c0.6-4.6-2.6-8.8-7.1-9.5c-12.9-1.7-25.9-2.7-39-2.9v-66.3h82.9c-0.4,13-1.7,26-3.8,38.8c-0.8,4.6,2.3,8.9,6.9,9.7
	c4.6,0.8,8.9-2.3,9.7-6.9c2.2-13.7,3.5-27.6,3.8-41.5H459c-0.9,18.7-4.9,37.1-11.9,54.4c-1.7,4.2,0.3,9,4.5,10.8
	c1,0.4,2.1,0.7,3.2,0.7c3.4,0,6.5-2.1,7.7-5.2c8.9-21.9,13.3-45.3,13.2-68.9c0-42.8-15.1-84.3-42.6-117
	c-34.6-41.4-85.8-65.4-139.8-65.4h-6c-40.3,1.3-79,15.9-110.1,41.5c-3.6,2.9-4.1,8.1-1.2,11.7c2.9,3.5,8.1,4.1,11.7,1.2
	c14.4-11.9,30.7-21.2,48.2-27.7c-13.8,15.1-24.7,32.6-32,51.7c-14.1-4-28-9-41.5-14.8c-3.3-1.4-7.1-0.5-9.5,2.2c0,0-0.4,0-0.6,0.5
	c-26.8,32.7-41.5,73.8-41.5,116.1c0,42.4,14.9,83.5,42,116.1l0.6,0.7c34.5,41.7,85.7,65.8,139.8,65.9c23.6,0,47.1-4.6,68.9-13.6
	c2.9-1,5.1-3.5,5.5-6.5c0.5-3-0.8-6.1-3.2-8S358.6,442.2,355.8,443.5z M284.8,455.1c-26.5-4.2-49.8-29-64.8-65.5
	c21.2-5,43-7.8,64.8-8.4V455.1z M284.8,364.6c-23.8,0.5-47.4,3.5-70.6,9c-7.6-24.4-11.8-49.8-12.4-75.4h82.9V364.6z M127.6,298.3
	h57.6c0.5,27.1,4.9,54,12.9,80c-12.3,3.6-24.4,7.9-36.2,12.9C141.3,364.4,129.3,332,127.6,298.3z M365.7,190.5
	c-21.1,4.9-42.6,7.7-64.3,8.3v-73.8C327.6,129.3,350.7,154.2,365.7,190.5z M284.8,281.7h-82.9c0.5-25.7,4.7-51.1,12.4-75.6
	c23.1,5.6,46.7,8.7,70.5,9.3V281.7z M301.4,215.3c23.6-0.5,47-3.5,70-9c7.7,24.4,11.9,49.7,12.4,75.3h-82.4V215.3z M459,281.7h-58.1
	c-0.5-27.1-4.8-54-12.9-79.9c12.5-3.6,24.7-7.9,36.7-12.9C445.4,215.6,457.3,248,459,281.7z M413.4,175.6
	c-10.1,4.1-20.4,7.6-30.9,10.6c-7.3-19.2-18.2-36.9-32.2-51.9c23.8,8.8,45.2,22.9,62.7,41.3H413.4z M284.8,124.9v73.9
	c-21.8-0.5-43.5-3.3-64.8-8.3C235,153.9,258.4,129.1,284.8,124.9z M185.3,281.7h-58.1c1.7-33.7,13.7-66.1,34.3-92.8
	c11.8,5,23.9,9.3,36.2,12.9C189.8,227.7,185.6,254.6,185.3,281.7z M173.3,404.4c10-4,20.1-7.5,30.4-10.5c7.3,19,18.1,36.4,31.8,51.4
	C211.9,436.6,190.6,422.6,173.3,404.4z"/>
<path class="st4" d="M488.7,210.2c1.3,3.1,4.3,5.1,7.6,5.1c1.1,0,2.2-0.2,3.2-0.7c4.2-1.8,6.2-6.6,4.5-10.8
	c-8.5-20.6-20.2-39.8-34.5-57c-3-2.7-7.6-2.8-10.8-0.2c-3.2,2.6-4,7.1-1.9,10.6C470,173.2,480.8,191.1,488.7,210.2z"/>
<path class="st4" d="M125,146.9C91.6,187.1,73.3,237.7,73.3,290c0,4.6,3.7,8.3,8.3,8.3s8.3-3.7,8.3-8.3c0-48.5,16.9-95.4,47.9-132.7
	c2.9-3.5,2.5-8.8-1.1-11.7s-8.8-2.4-11.7,1.1V146.9z"/>
</svg>
