<?xml version="1.0" encoding="utf-8"?>
<!-- Generator: Adobe Illustrator 23.0.5, SVG Export Plug-In . SVG Version: 6.00 Build 0)  -->
<svg version="1.1" id="Capa_1" xmlns="http://www.w3.org/2000/svg" xmlns:xlink="http://www.w3.org/1999/xlink" x="0px" y="0px"
	 viewBox="0 0 512 512" style="enable-background:new 0 0 512 512;" xml:space="preserve">
<style type="text/css">
	.st0{fill:url(#SVGID_1_);}
	.st1{fill:#FFFFFF;}
	.st2{fill:url(#SVGID_2_);}
	.st3{fill:url(#SVGID_3_);}
	.st4{fill:none;}
	.st5{fill:url(#SVGID_4_);}
	.st6{fill:#6ABB9F;}
	.st7{fill:url(#SVGID_5_);}
	.st8{fill:url(#SVGID_6_);}
	.st9{fill:url(#SVGID_7_);}
	.st10{fill:url(#SVGID_8_);}
	.st11{fill:url(#SVGID_9_);}
	.st12{fill:url(#SVGID_10_);}
</style>
<g>
	<g>
		<g>
			<linearGradient id="SVGID_1_" gradientUnits="userSpaceOnUse" x1="236.7988" y1="0" x2="236.7988" y2="512">
				<stop  offset="0" style="stop-color:#FFFFFF"/>
				<stop  offset="3.924275e-02" style="stop-color:#FFFFFF;stop-opacity:0.8292"/>
				<stop  offset="4.594595e-02" style="stop-color:#FFFFFF;stop-opacity:0.8"/>
				<stop  offset="0.8627" style="stop-color:#FFFFFF;stop-opacity:0.5432"/>
				<stop  offset="1" style="stop-color:#FFFFFF;stop-opacity:0.5"/>
			</linearGradient>
			<path class="st0" d="M447.9,93.9l-91-91C355,1.1,352.5,0,349.8,0h-297c-16.5,0-30,13.5-30,30v452c0,16.5,13.5,30,30,30h312
				c5.5,0,10-4.5,10-10s-4.5-10-10-10h-312c-5.5,0-10-4.5-10-10V68h69.7c5.5,0,10-4.5,10-10s-4.5-10-10-10H42.8V30
				c0-5.5,4.5-10,10-10h287v61c0,16.5,13.5,30,30,30h61v192c0,5.5,4.5,10,10,10s10-4.5,10-10V101C450.8,98.3,449.7,95.8,447.9,93.9z
				 M369.8,91c-5.5,0-10-4.5-10-10V34.1L416.7,91H369.8z"/>
		</g>
	</g>
</g>
<g>
	<g>
		<g>
			<path class="st1" d="M447.9,333.4c-1.9-1.9-4.4-2.9-7.1-2.9s-5.2,1.1-7.1,2.9c-1.9,1.9-2.9,4.4-2.9,7.1s1.1,5.2,2.9,7.1
				c1.9,1.9,4.4,2.9,7.1,2.9s5.2-1.1,7.1-2.9c1.9-1.9,2.9-4.4,2.9-7.1S449.7,335.3,447.9,333.4z"/>
		</g>
	</g>
</g>
<g>
	<g>
		<g>
			<path class="st1" d="M155.2,50.9c-1.9-1.9-4.4-2.9-7.1-2.9c-2.6,0-5.2,1.1-7.1,2.9s-2.9,4.4-2.9,7.1s1.1,5.2,2.9,7.1
				s4.4,2.9,7.1,2.9c2.6,0,5.2-1.1,7.1-2.9c1.9-1.9,2.9-4.4,2.9-7.1S157.1,52.8,155.2,50.9z"/>
		</g>
	</g>
</g>
<g>
	<linearGradient id="SVGID_2_" gradientUnits="userSpaceOnUse" x1="287.4207" y1="302.7078" x2="307.7393" y2="302.7078">
		<stop  offset="0" style="stop-color:#FFFFFF"/>
		<stop  offset="1" style="stop-color:#FFFFFF;stop-opacity:0"/>
	</linearGradient>
	<polygon class="st2" points="287.4,292.6 307.7,312.9 307.7,312.9 287.4,292.6 	"/>
	<linearGradient id="SVGID_3_" gradientUnits="userSpaceOnUse" x1="287.4207" y1="302.7077" x2="307.7392" y2="302.7077">
		<stop  offset="0" style="stop-color:#FFFFFF"/>
		<stop  offset="1" style="stop-color:#FFFFFF;stop-opacity:0"/>
	</linearGradient>
	<polygon class="st3" points="287.4,292.6 287.4,292.6 307.7,312.9 307.7,312.9 	"/>
	<polygon class="st4" points="341.8,375.3 354.3,387.8 341.8,375.3 	"/>
	<linearGradient id="SVGID_4_" gradientUnits="userSpaceOnUse" x1="293.231" y1="333.8878" x2="307.4632" y2="333.8878">
		<stop  offset="0" style="stop-color:#FFFFFF"/>
		<stop  offset="1" style="stop-color:#FFFFFF;stop-opacity:0"/>
	</linearGradient>
	<polygon class="st5" points="307.5,341 307.5,341 293.2,326.8 293.2,326.8 	"/>
	<path class="st6" d="M483.1,421.7l-45.8-45.8c-1.9-1.9-4.4-2.9-7.1-2.9l-62.3-0.1l-12.2-12.2c0,0,0,0,0.1-0.1l-14.2-14.2
		c0,0,0,0-0.1,0.1l-20.2-20.2c0,0,0,0,0.1-0.1l-13.9-13.9l-0.3-0.3c0,0,0,0-0.1,0.1l-20.3-20.3c0,0,0,0,0-0.1l-14.3-14.3
		c0,0,0,0,0,0.1l-32.2-32.2c-3.9-3.9-10.2-3.9-14.1,0c-3.9,3.9-3.9,10.2,0,14.1l31.8,31.8c0,0,0,0,0,0l14.4,14.4c0,0,0,0,0,0
		l20.3,20.3c0,0,0,0,0,0l14.2,14.2c0,0,0,0,0,0l20.2,20.2c0,0,0,0,0,0l14.2,14.2c0,0,0,0,0,0l12.5,12.5l0.1,62.3
		c0,2.6,1.1,5.2,2.9,7.1l45.8,45.8c4,4,9.2,6.1,14.6,6.1c2.7,0,5.4-0.5,7.9-1.6c7.8-3.2,12.8-10.7,12.8-19.1l0-30.6l30.6,0
		c0,0,0,0,0,0c8.4,0,15.9-5,19.1-12.8C490.8,436.5,489.1,427.6,483.1,421.7z M417.5,488.2c-0.4,0.2-0.6,0-0.7-0.1l-42.9-42.9l0-38.1
		l1.5,1.5l0,0l42.6,42.6l0,36.5C417.9,487.8,417.9,488,417.5,488.2z M469.1,436.6c-0.2,0.4-0.4,0.4-0.6,0.4l-36.5,0l-44-44l38.1,0
		l42.9,42.9C469.2,436,469.3,436.1,469.1,436.6z"/>
	<linearGradient id="SVGID_5_" gradientUnits="userSpaceOnUse" x1="327.6153" y1="368.2456" x2="341.8067" y2="368.2456">
		<stop  offset="0" style="stop-color:#FFFFFF"/>
		<stop  offset="1" style="stop-color:#FFFFFF;stop-opacity:0"/>
	</linearGradient>
	<polygon class="st7" points="327.6,361.2 341.8,375.3 341.8,375.3 327.6,361.2 	"/>
	<linearGradient id="SVGID_6_" gradientUnits="userSpaceOnUse" x1="85.8563" y1="100.2017" x2="350.9708" y2="374.359">
		<stop  offset="0" style="stop-color:#FFFFFF"/>
		<stop  offset="1" style="stop-color:#FFFFFF;stop-opacity:0"/>
	</linearGradient>
	<path class="st8" d="M243.7,394.7v-28.1c24.1-2,46.1-11.3,63.8-25.6l-14.2-14.2c-16.4,12.7-37.1,20.3-59.5,20.3
		c-53,0-96.1-42.2-96.1-94c0-51.8,43.1-94,96.1-94c53,0,96.1,42.2,96.1,94c0,22.7-8.3,43.5-22,59.8l14.2,14.2
		c15.3-17.5,25.2-39.7,27.4-64h29c-2.3,32.2-15.6,61.4-36.2,84.2l14.2,14.2c24.2-26.4,39.7-60.6,42.1-98.3h9c5.5,0,10-4.5,10-10
		s-4.5-10-10-10h-9c-5.1-81.4-71.7-146.8-154.7-151.7v-12c0-5.5-4.5-10-10-10c-5.5,0-10,4.5-10,10v12
		c-83,4.9-149.6,70.3-154.7,151.7h-9c-5.5,0-10,4.5-10,10c0,5.5,4.5,10,10,10h9c5.1,81.4,71.7,146.8,154.7,151.7v12
		c0,5.5,4.5,10,10,10c5.5,0,10-4.5,10-10v-12c37.4-2.2,71.5-16.7,98.1-39.4l-14.2-14.2C304.7,380.3,275.6,392.6,243.7,394.7z
		 M243.7,111.4c71.9,4.8,129.6,61.2,134.6,131.7h-29c-4.9-55-49.6-98.9-105.6-103.6V111.4z M223.7,111.4v28.1
		c-56,4.7-100.7,48.6-105.6,103.6H89C94.1,172.7,151.8,116.2,223.7,111.4z M223.7,394.7C151.8,389.9,94.1,333.5,89,263.1h29
		c4.9,55,49.6,98.9,105.6,103.6V394.7z"/>
	<linearGradient id="SVGID_7_" gradientUnits="userSpaceOnUse" x1="307.7392" y1="313.0249" x2="308.0588" y2="313.0249">
		<stop  offset="0" style="stop-color:#FFFFFF"/>
		<stop  offset="1" style="stop-color:#FFFFFF;stop-opacity:0"/>
	</linearGradient>
	<polygon class="st9" points="307.7,312.9 308.1,313.2 307.7,312.9 	"/>
	<linearGradient id="SVGID_8_" gradientUnits="userSpaceOnUse" x1="308.0588" y1="320.1107" x2="321.9134" y2="320.1107">
		<stop  offset="0" style="stop-color:#FFFFFF"/>
		<stop  offset="1" style="stop-color:#FFFFFF;stop-opacity:0"/>
	</linearGradient>
	<polygon class="st10" points="308.1,313.2 321.9,327 321.9,327 	"/>
	<linearGradient id="SVGID_9_" gradientUnits="userSpaceOnUse" x1="307.7392" y1="319.951" x2="321.9134" y2="319.951">
		<stop  offset="0" style="stop-color:#FFFFFF"/>
		<stop  offset="1" style="stop-color:#FFFFFF;stop-opacity:0"/>
	</linearGradient>
	<polygon class="st11" points="321.9,327 307.7,312.9 307.7,312.9 308.1,313.2 321.9,327 	"/>
	<polygon points="342.1,347.2 356.3,361.4 356.3,361.4 342.1,347.2 	"/>
	<linearGradient id="SVGID_10_" gradientUnits="userSpaceOnUse" x1="233.7772" y1="253.1638" x2="270.7529" y2="289.977">
		<stop  offset="0" style="stop-color:#FFFFFF"/>
		<stop  offset="1" style="stop-color:#FFFFFF;stop-opacity:0.3"/>
	</linearGradient>
	<path class="st12" d="M300.8,253.1c0-36.4-30.1-66-67.1-66c-37,0-67.1,29.6-67.1,66s30.1,66,67.1,66c14.7,0,28.2-4.7,39.3-12.5
		l-14.4-14.4c-7.2,4.4-15.7,7-24.9,7c-26,0-47.1-20.6-47.1-46s21.1-46,47.1-46c26,0,47.1,20.6,47.1,46c0,9.3-2.8,17.9-7.7,25.2
		l14.3,14.3C295.8,281.5,300.8,267.9,300.8,253.1z"/>
	<polygon points="342.1,347.2 356.3,361.4 356.3,361.4 342.1,347.2 	"/>
</g>
</svg>
