<?xml version="1.0" encoding="utf-8"?>
<!-- Generator: Adobe Illustrator 23.0.5, SVG Export Plug-In . SVG Version: 6.00 Build 0)  -->
<svg version="1.1" id="Слой_1" xmlns="http://www.w3.org/2000/svg" xmlns:xlink="http://www.w3.org/1999/xlink" x="0px" y="0px"
	 viewBox="0 0 512 512" style="enable-background:new 0 0 512 512;" xml:space="preserve">
<style type="text/css">
	.st0{fill:#FFFFFF;}
	.st1{fill:url(#SVGID_1_);}
	.st2{fill:url(#SVGID_2_);}
	.st3{fill:#6ABB9F;}
	.st4{fill:url(#SVGID_3_);}
</style>
<path class="st0" d="M220.2,152.3v7.5c-25.1,3.6-44.4,25.2-44.4,51.3v7.4c0,28.6,23.2,51.8,51.8,51.8h29.6c4.1,0,7.4,3.3,7.4,7.4
	v7.4c0,4.1-3.3,7.4-7.4,7.4h-29.6c-4.1,0-7.4-3.3-7.4-7.4l0,0c0-4.1-3.3-7.4-7.4-7.4h-29.6c-4.1,0-7.4,3.3-7.4,7.4l0,0
	c0,26.1,19.3,47.7,44.4,51.3v7.5c0,11.3,9.2,21.7,20.5,22.6c13,1,23.9-9.3,23.9-22.1v-7.9c25.1-3.6,44.4-25.2,44.4-51.3v-7.4
	c0-28.6-23.2-51.8-51.8-51.8h-29.6c-4.1,0-7.4-3.3-7.4-7.4v-7.4c0-4.1,3.3-7.4,7.4-7.4h29.6c4.1,0,7.4,3.3,7.4,7.4v0
	c0,4.1,3.3,7.4,7.4,7.4h29.6c4.1,0,7.4-3.3,7.4-7.4v0c0-26.1-19.3-47.7-44.4-51.3v-7.9c0-12.8-10.9-23.1-23.9-22.1
	C229.4,130.6,220.2,141,220.2,152.3z M249.8,152.1v22h7.4c17.9,0,32.8,12.7,36.3,29.6h-15.3c-3.1-8.6-11.3-14.8-20.9-14.8h-29.6
	c-12.3,0-22.2,9.9-22.2,22.2v7.4c0,12.3,9.9,22.2,22.2,22.2h29.6c20.4,0,37,16.6,37,37v7.4c0,20.4-16.6,37-37,37h-7.4v22
	c0,3.7-2.6,7-6.3,7.6c-4.6,0.7-8.5-2.9-8.5-7.3v-22.2h-7.4c-17.9,0-32.8-12.7-36.3-29.6h15.3c3.1,8.6,11.3,14.8,20.9,14.8h29.6
	c12.3,0,22.2-9.9,22.2-22.2v-7.4c0-12.3-9.9-22.2-22.2-22.2h-29.6c-20.4,0-37-16.6-37-37v-7.4c0-20.4,16.6-37,37-37h7.4v-22.2
	c0-4.4,3.9-8,8.5-7.3C247.2,145.1,249.8,148.4,249.8,152.1z"/>
<linearGradient id="SVGID_1_" gradientUnits="userSpaceOnUse" x1="5.3619" y1="248.1386" x2="479.4384" y2="248.1386">
	<stop  offset="0" style="stop-color:#FFFFFF"/>
	<stop  offset="1" style="stop-color:#FFFFFF;stop-opacity:0.5"/>
</linearGradient>
<path class="st1" d="M478.6,184.8c-1.8-6.6-6.3-12.1-12.5-15.1l-41.5-21.5c-3-1.5-4.7-4.6-4.6-7.9l2.2-46.7
	c0.3-6.8-2.2-13.4-7.1-18.3c-4.8-4.8-11.5-7.4-18.3-7.1l-46.7,2.2c-3.3,0.1-6.4-1.7-7.9-4.6l-21.5-41.4c-3.1-6-8.6-10.5-15.2-12.2
	c-6.6-1.8-13.6-0.7-19.3,3l-39.5,25.2c-2.8,1.8-6.3,1.8-9.1,0L198.4,15c-5.7-3.7-12.7-4.8-19.3-3c-6.6,1.8-12.1,6.2-15.2,12.2
	l-21.4,41.6c-1.5,2.9-4.6,4.7-7.9,4.6l-46.7-2.2c-6.8-0.3-13.5,2.2-18.3,7c-4.8,4.8-7.4,11.5-7,18.3l2.2,46.7
	c0.1,3.3-1.6,6.4-4.6,7.9l-41.4,21.5c-6,3.1-10.5,8.6-12.2,15.2s-0.7,13.6,3,19.3l25.2,39.4c1.8,2.8,1.8,6.3,0,9.1L9.4,292.1
	c-3.8,5.7-5,12.7-3.2,19.4c1.8,6.6,6.3,12.1,12.5,15.1L60.2,348c3,1.5,4.7,4.6,4.6,7.9l-2.2,46.7c-0.3,6.8,2.2,13.5,7,18.3
	c4.8,4.8,11.5,7.4,18.3,7l46.7-2.2c3.3-0.1,6.4,1.7,7.9,4.6l21.5,41.5c3.1,6,8.6,10.5,15.2,12.2c6.6,1.8,13.6,0.7,19.3-3l39.5-25.2
	c2.8-1.8,6.3-1.8,9.1,0l39.5,25.3c5.7,3.7,12.7,4.8,19.3,3c6.6-1.8,12.1-6.2,15.2-12.3l11.8-22.7c2-3.9,0.5-8.7-3.4-10.7
	c-3.9-2-8.7-0.5-10.7,3.4l-11.8,22.7c-1.1,2.1-3,3.7-5.2,4.3c-2.3,0.6-4.7,0.2-6.7-1l-39.5-25.3c-7.9-5-18-5-26,0L190,467.9
	c-1.9,1.4-4.4,1.9-6.7,1.3c-2.3-0.6-4.2-2.3-5.2-4.5l-21.5-41.5c-4.4-8.4-13.2-13.5-22.7-13.1l-46.7,2.2c-2.4,0.3-4.8-0.5-6.5-2.3
	c-1.7-1.7-2.5-4.1-2.3-6.5l2.2-46.8c0.3-9.4-4.8-18.2-13.1-22.6L26,312.5c-2.1-1.1-3.7-3-4.3-5.2c-0.6-2.3-0.2-4.7,1-6.7l25.3-39.5
	c5-7.9,5-18,0-26l-25.3-39.5c-1.3-2-1.7-4.4-1-6.7c0.6-2.3,2.2-4.2,4.3-5.2l41.5-21.5c8.4-4.4,13.4-13.3,13-22.7l-2.2-46.7
	c-0.1-2.4,0.7-4.7,2.4-6.3s4-2.6,6.3-2.4l46.8,2.2c9.4,0.4,18.2-4.7,22.6-13.1L178,31.6c1.1-2.1,3-3.7,5.2-4.3
	c2.3-0.6,4.7-0.2,6.7,1l39.5,25.3c7.9,5,18,5,26,0l39.5-25.3c2-1.3,4.4-1.7,6.7-1c2.3,0.6,4.2,2.2,5.2,4.3l21.5,41.5
	c4.4,8.4,13.3,13.5,22.7,13l46.7-2.2c2.4-0.1,4.7,0.7,6.3,2.4c1.7,1.7,2.6,4,2.4,6.3l-2.2,46.8c-0.3,9.4,4.8,18.2,13.1,22.6
	l41.5,21.5c2.1,1.1,3.7,3,4.3,5.2c0.6,2.3,0.2,4.7-1,6.7l-15.8,24.6c-1.7,2.4-2,5.5-0.7,8.1c1.3,2.6,3.9,4.3,6.8,4.4
	c2.9,0.1,5.6-1.4,7.1-4l15.8-24.6C479.2,198.4,480.4,191.4,478.6,184.8z"/>
<linearGradient id="SVGID_2_" gradientUnits="userSpaceOnUse" x1="68.7631" y1="271.9241" x2="314.7975" y2="271.9241">
	<stop  offset="0" style="stop-color:#FFFFFF"/>
	<stop  offset="1" style="stop-color:#FFFFFF;stop-opacity:0"/>
</linearGradient>
<path class="st2" d="M114.3,340.2c-45.6-63.3-38.1-150.3,17.6-205c2.7-3.1,2.6-7.8-0.3-10.7c-2.9-2.9-7.6-3.1-10.7-0.5h0
	c-33.5,32.6-52.3,77.3-52.1,124c0,61,32.1,117.5,84.4,148.8c47.8,28.7,106.1,32.5,156.8,11.1c4.8-2,6.4-8,3.2-12.1h0
	c-2.2-2.8-6-3.8-9.3-2.4C236.5,421.9,157.6,400.4,114.3,340.2z"/>
<path class="st3" d="M505.4,388.9c-2-4-6.1-6.6-10.6-6.6h-23.7V267.8c0-6.5-5.3-11.8-11.8-11.8h-11.4h-0.5h-15.8h-0.2h-43.2
	c-6.5,0-11.8,5.3-11.8,11.8v114.5h-23.7c-4.5,0-8.6,2.6-10.6,6.6c-2,4-1.5,8.8,1.2,12.4l1.9,2.6l12.2,15.6l0,0l57,74
	c2.2,2.9,5.7,4.7,9.4,4.7c3.7,0,7.2-1.7,9.4-4.7l71-92.2C506.9,397.7,507.4,392.9,505.4,388.9z M423.7,479.9l-63.2-81.8h19.7
	c6.5,0,11.8-5.3,11.8-11.8V271.8h63.2v114.5c0,6.5,5.3,11.8,11.8,11.8h19.7L423.7,479.9z"/>
<linearGradient id="SVGID_3_" gradientUnits="userSpaceOnUse" x1="148.5905" y1="152.4348" x2="414.3343" y2="152.4348">
	<stop  offset="0" style="stop-color:#FFFFFF"/>
	<stop  offset="1" style="stop-color:#FFFFFF;stop-opacity:0"/>
</linearGradient>
<path class="st4" d="M414,220.4c-0.3-2.1-0.7-4.1-1.1-6.1c0,0,0,0,0,0c-0.3-1.7-0.7-3.3-1.1-5c0,0,0-0.1,0-0.1
	C400.7,160.8,369.3,119,324.7,95c-53.9-28.9-119-27.3-171.5,4.1c-2.7,1.2-4.5,3.9-4.6,6.9c-0.1,3,1.5,5.8,4.2,7.2
	c2.7,1.4,5.9,1.2,8.3-0.6c47.6-28.7,106.7-30.2,155.7-4.1c32.9,17.5,58,45.9,71.8,79.4l0,0c1.7,4.2,3.3,8.4,4.6,12.8
	c0,0.1,0,0.1,0,0.2c0.4,1.3,0.8,2.5,1.1,3.8c0.2,0.7,0.4,1.5,0.6,2.2c0.2,0.6,0.3,1.2,0.5,1.8c1.1,4.3,2,8.6,2.8,12.9c0,0,0,0,0,0
	c0.1,0.5,0.2,1,0.3,1.5c0.2,3,2.1,5.6,4.9,6.7c2.8,1.1,6,0.6,8.2-1.5C414,226.4,414.9,223.3,414,220.4z"/>
</svg>
