<?xml version="1.0" encoding="utf-8"?>
<!-- Generator: Adobe Illustrator 23.0.5, SVG Export Plug-In . SVG Version: 6.00 Build 0)  -->
<svg version="1.1" id="Capa_1" xmlns="http://www.w3.org/2000/svg" xmlns:xlink="http://www.w3.org/1999/xlink" x="0px" y="0px"
	 viewBox="0 0 512 512" style="enable-background:new 0 0 512 512;" xml:space="preserve">
<style type="text/css">
	.st0{fill:url(#SVGID_1_);}
	.st1{fill:url(#SVGID_2_);}
	.st2{fill:url(#SVGID_3_);}
	.st3{opacity:0.8;fill:#3B38BF;}
	.st4{fill:#0E0C0A;}
</style>
<linearGradient id="SVGID_1_" gradientUnits="userSpaceOnUse" x1="256" y1="67.9583" x2="256" y2="506.9734">
	<stop  offset="0" style="stop-color:#3B38BF;stop-opacity:0.8"/>
	<stop  offset="0.9104" style="stop-color:#3B38BF;stop-opacity:7.170165e-02"/>
	<stop  offset="1" style="stop-color:#3B38BF;stop-opacity:0"/>
</linearGradient>
<path class="st0" d="M106,68c-4.1,0-7.5,3.4-7.5,7.5v44.4c0,4.1,3.4,7.5,7.5,7.5s7.5-3.4,7.5-7.5V83h285v375h-285V152.2
	c0-4.1-3.4-7.5-7.5-7.5s-7.5,3.4-7.5,7.5v313.3c0,4.1,3.4,7.5,7.5,7.5h300c4.1,0,7.5-3.4,7.5-7.5v-390c0-4.1-3.4-7.5-7.5-7.5"/>
<linearGradient id="SVGID_2_" gradientUnits="userSpaceOnUse" x1="256" y1="442.9583" x2="256" y2="24.848">
	<stop  offset="0" style="stop-color:#3B38BF;stop-opacity:0.8"/>
	<stop  offset="1" style="stop-color:#3B38BF;stop-opacity:0"/>
</linearGradient>
<path class="st1" d="M376,384.3c4.1,0,7.5-3.4,7.5-7.5V105.5c0-4.1-3.4-7.5-7.5-7.5H136c-4.1,0-7.5,3.4-7.5,7.5v330
	c0,4.1,3.4,7.5,7.5,7.5h240c4.1,0,7.5-3.4,7.5-7.5v-26.7c0-4.1-3.4-7.5-7.5-7.5s-7.5,3.4-7.5,7.5V428h-225V113h225v263.8
	C368.5,380.9,371.9,384.3,376,384.3z"/>
<linearGradient id="SVGID_3_" gradientUnits="userSpaceOnUse" x1="256" y1="394.5833" x2="256" y2="262.0833">
	<stop  offset="3.603492e-03" style="stop-color:#3B38BF;stop-opacity:0.8"/>
	<stop  offset="1" style="stop-color:#3B38BF;stop-opacity:0"/>
</linearGradient>
<path class="st2" d="M170.5,269.6v117.5c0,4.1,3.4,7.5,7.5,7.5h156c4.1,0,7.5-3.4,7.5-7.5V269.6c0-4.1-3.4-7.5-7.5-7.5H178
	C173.9,262.1,170.5,265.4,170.5,269.6z M185.5,277.1h141v102.5h-141V277.1z"/>
<path class="st3" d="M301,39h-90c-4.1,0-7.5,3.4-7.5,7.5s3.4,7.5,7.5,7.5h90c4.1,0,7.5-3.4,7.5-7.5S305.1,39,301,39z"/>
<g>
	<path class="st3" d="M301,307.8h-90c-4.1,0-7.5,3.4-7.5,7.5s3.4,7.5,7.5,7.5h90c4.1,0,7.5-3.4,7.5-7.5S305.1,307.8,301,307.8z"/>
	<path class="st3" d="M301,333.8h-90c-4.1,0-7.5,3.4-7.5,7.5s3.4,7.5,7.5,7.5h90c4.1,0,7.5-3.4,7.5-7.5S305.1,333.8,301,333.8z"/>
</g>
<path class="st4" d="M329.3,191.9c-2.2-6.9-8.1-11.8-15.3-12.9l-28.4-4.1L273,149.1c-3.2-6.5-9.7-10.6-17-10.6
	c-7.3,0-13.8,4.1-17,10.6l-12.6,25.8L198,179c-7.2,1-13,6-15.3,12.9c-2.3,6.9-0.4,14.4,4.8,19.4l20.6,20l-4.9,28.4
	c-1.2,7.2,1.7,14.3,7.6,18.6c3.3,2.4,7.2,3.6,11.1,3.6c3,0,6-0.7,8.8-2.2l25.4-13.4l25.4,13.4c6.4,3.4,14,2.8,19.9-1.4
	c5.9-4.3,8.8-11.4,7.6-18.6l-4.9-28.3l20.6-20.1C329.7,206.2,331.6,198.8,329.3,191.9z M290.7,217.8c-4.5,4.4-6.5,10.6-5.4,16.8
	l4.8,28.2l-25.2-13.3c-2.8-1.5-5.8-2.2-8.8-2.2s-6.1,0.7-8.8,2.2L222,262.8l4.8-28.2c1.1-6.1-1-12.4-5.4-16.8l-20.5-20l28.3-4.1
	c6.2-0.9,11.5-4.8,14.3-10.4l12.6-25.6l12.6,25.6c2.8,5.6,8.1,9.5,14.3,10.4l28.3,4.1L290.7,217.8z"/>
</svg>
