<?xml version="1.0" encoding="utf-8"?>
<!-- Generator: Adobe Illustrator 23.0.5, SVG Export Plug-In . SVG Version: 6.00 Build 0)  -->
<svg version="1.1" id="Слой_1" xmlns="http://www.w3.org/2000/svg" xmlns:xlink="http://www.w3.org/1999/xlink" x="0px" y="0px"
	 viewBox="0 0 512 512" style="enable-background:new 0 0 512 512;" xml:space="preserve">
<style type="text/css">
	.st0{fill:#3B38BF;}
	.st1{fill:url(#SVGID_1_);}
	.st2{fill:url(#SVGID_2_);}
	.st3{fill:#0E0C0A;}
	.st4{fill:url(#SVGID_3_);}
</style>
<path class="st0" d="M219.5,154.2v7.6c-25.6,3.7-45.4,25.8-45.4,52.4v7.6c0,29.2,23.7,52.9,52.9,52.9h30.2c4.2,0,7.6,3.4,7.6,7.6
	v7.6c0,4.2-3.4,7.6-7.6,7.6H227c-4.2,0-7.6-3.4-7.6-7.6v0c0-4.2-3.4-7.6-7.6-7.6h-30.2c-4.2,0-7.6,3.4-7.6,7.6l0,0
	c0,26.6,19.7,48.7,45.4,52.4v7.6c0,11.6,9.4,22.2,20.9,23.1c13.3,1,24.4-9.5,24.4-22.6v-8.1c25.6-3.7,45.4-25.8,45.4-52.4v-7.6
	c0-29.2-23.7-52.9-52.9-52.9H227c-4.2,0-7.6-3.4-7.6-7.6v-7.6c0-4.2,3.4-7.6,7.6-7.6h30.2c4.2,0,7.6,3.4,7.6,7.6v0
	c0,4.2,3.4,7.6,7.6,7.6h30.2c4.2,0,7.6-3.4,7.6-7.6v0c0-26.6-19.7-48.7-45.4-52.4v-8.1c0-13.1-11.1-23.6-24.4-22.6
	C228.8,132,219.5,142.7,219.5,154.2z M249.7,154l0,22.4h7.6c18.3,0,33.5,13,37,30.2h-15.6c-3.1-8.8-11.5-15.1-21.4-15.1H227
	c-12.5,0-22.7,10.2-22.7,22.7v7.6c0,12.5,10.2,22.7,22.7,22.7h30.2c20.9,0,37.8,16.9,37.8,37.8v7.6c0,20.9-16.9,37.8-37.8,37.8h-7.6
	v22.4c0,3.8-2.7,7.2-6.4,7.7c-4.7,0.7-8.7-2.9-8.7-7.5v-22.7H227c-18.3,0-33.5-13-37-30.2h15.6c3.1,8.8,11.5,15.1,21.4,15.1h30.2
	c12.5,0,22.7-10.2,22.7-22.7v-7.6c0-12.5-10.2-22.7-22.7-22.7H227c-20.9,0-37.8-16.9-37.8-37.8v-7.6c0-20.9,16.9-37.8,37.8-37.8h7.6
	v-22.7c0-4.5,4-8.2,8.7-7.5C247,146.8,249.7,150.2,249.7,154z"/>
<linearGradient id="SVGID_1_" gradientUnits="userSpaceOnUse" x1="-9.094947e-13" y1="252.0879" x2="484.2601" y2="252.0879">
	<stop  offset="0" style="stop-color:#3B38BF"/>
	<stop  offset="1" style="stop-color:#3B38BF;stop-opacity:0.5"/>
</linearGradient>
<path class="st1" d="M483.4,187.3c-1.8-6.8-6.5-12.4-12.7-15.5l-42.4-21.9c-3-1.5-4.9-4.7-4.7-8.1l2.3-47.7c0.3-7-2.3-13.7-7.2-18.7
	c-4.9-4.9-11.7-7.5-18.7-7.2l-47.7,2.3c-3.4,0.1-6.5-1.7-8.1-4.7l-21.9-42.3c-3.2-6.2-8.8-10.7-15.5-12.5
	c-6.7-1.8-13.9-0.7-19.7,3.1l-40.3,25.7c-2.8,1.8-6.5,1.8-9.3,0L197.2,14c-5.8-3.7-13-4.9-19.7-3.1c-6.7,1.8-12.3,6.3-15.5,12.5
	l-21.9,42.5c-1.5,3-4.7,4.8-8.1,4.7l-47.7-2.3c-7-0.4-13.8,2.3-18.7,7.2c-4.9,4.9-7.5,11.7-7.2,18.7l2.3,47.7
	c0.2,3.4-1.7,6.5-4.7,8.1l-42.3,21.9c-6.2,3.2-10.7,8.8-12.5,15.5s-0.7,13.9,3.1,19.7l25.7,40.2c1.8,2.8,1.8,6.5,0,9.3L4.1,296.9
	c-3.9,5.8-5.1,13-3.3,19.8c1.8,6.8,6.5,12.4,12.7,15.5L56,354.1c3,1.5,4.8,4.7,4.7,8.1l-2.3,47.7c-0.4,7,2.3,13.8,7.2,18.7
	c4.9,4.9,11.7,7.5,18.7,7.2l47.7-2.3c3.4-0.1,6.5,1.7,8.1,4.7l21.9,42.4c3.2,6.2,8.8,10.7,15.5,12.5s13.9,0.7,19.7-3.1l40.3-25.7
	c2.8-1.8,6.5-1.8,9.3,0l40.3,25.8c5.8,3.8,13,4.9,19.7,3.1c6.7-1.8,12.4-6.4,15.5-12.5l12-23.2c2-4,0.5-8.8-3.5-10.9
	c-4-2-8.8-0.5-10.9,3.5l-12,23.2c-1.1,2.2-3,3.7-5.3,4.4c-2.3,0.6-4.8,0.2-6.8-1.1l-40.3-25.9c-8.1-5.1-18.4-5.1-26.5,0l-40.3,25.8
	c-2,1.5-4.5,1.9-6.9,1.3c-2.4-0.6-4.3-2.3-5.3-4.6l-21.9-42.4c-4.5-8.6-13.5-13.8-23.1-13.4l-47.7,2.3c-2.5,0.3-4.9-0.6-6.6-2.3
	c-1.7-1.7-2.6-4.2-2.3-6.6l2.3-47.8c0.4-9.6-4.9-18.6-13.4-23.1l-42.5-22c-2.2-1.1-3.7-3-4.4-5.3c-0.6-2.3-0.2-4.8,1.1-6.8
	l25.9-40.3c5.1-8.1,5.1-18.4,0-26.5l-25.8-40.3c-1.3-2-1.7-4.5-1.1-6.8c0.6-2.3,2.2-4.3,4.4-5.3l42.4-21.9
	c8.6-4.5,13.7-13.6,13.3-23.2l-2.3-47.7c-0.1-2.4,0.8-4.8,2.5-6.5c1.7-1.7,4.1-2.6,6.5-2.5l47.8,2.3c9.6,0.4,18.6-4.8,23.1-13.4
	l21.9-42.4c1.1-2.2,3-3.7,5.3-4.4c2.3-0.6,4.8-0.2,6.8,1.1l40.3,25.9c8.1,5.1,18.4,5.1,26.5,0l40.3-25.8c2-1.3,4.5-1.7,6.8-1.1
	c2.3,0.6,4.3,2.2,5.3,4.4l21.9,42.4c4.5,8.6,13.6,13.8,23.2,13.3l47.7-2.3c2.4-0.1,4.8,0.8,6.5,2.5s2.6,4.1,2.5,6.5l-2.3,47.8
	c-0.4,9.6,4.9,18.6,13.4,23.1l42.4,21.9c2.2,1.1,3.7,3,4.4,5.3c0.6,2.3,0.2,4.8-1.1,6.8l-16.1,25.1c-1.7,2.4-2,5.6-0.7,8.3
	c1.3,2.7,4,4.4,7,4.5c3,0.1,5.8-1.5,7.2-4.1l16.1-25.1C484,201.3,485.2,194.1,483.4,187.3z"/>
<linearGradient id="SVGID_2_" gradientUnits="userSpaceOnUse" x1="64.7631" y1="276.3843" x2="316.0826" y2="276.3843">
	<stop  offset="0" style="stop-color:#3B38BF"/>
	<stop  offset="1" style="stop-color:#3B38BF;stop-opacity:0"/>
</linearGradient>
<path class="st2" d="M111.3,346.1c-46.5-64.6-38.9-153.6,18-209.4c2.8-3.2,2.6-8-0.3-11c-3-3-7.7-3.2-10.9-0.5h0
	c-34.2,33.3-53.4,79-53.2,126.7c0,62.3,32.7,120,86.2,152c48.8,29.3,108.4,33.2,160.2,11.3c4.9-2.1,6.5-8.2,3.2-12.4l0,0
	c-2.3-2.9-6.2-3.9-9.5-2.4C236.1,429.6,155.5,407.6,111.3,346.1z"/>
<path class="st3" d="M510.7,395.9c-2-4.1-6.2-6.7-10.8-6.7h-24.2V272.2c0-6.7-5.4-12.1-12.1-12.1H452h-0.5h-16.1h-0.2h-44.2
	c-6.7,0-12.1,5.4-12.1,12.1v116.9h-24.2c-4.6,0-8.8,2.6-10.8,6.7c-2,4.1-1.6,9,1.2,12.7l2,2.6l12.4,15.9l0,0l58.2,75.6
	c2.3,3,5.8,4.8,9.6,4.8c3.8,0,7.3-1.8,9.6-4.8l72.6-94.2C512.3,404.9,512.8,400,510.7,395.9z M427.3,488.8l-64.5-83.5H383
	c6.7,0,12.1-5.4,12.1-12.1V276.2h64.5v116.9c0,6.7,5.4,12.1,12.1,12.1h20.2L427.3,488.8z"/>
<linearGradient id="SVGID_3_" gradientUnits="userSpaceOnUse" x1="146.3052" y1="154.3282" x2="417.7575" y2="154.3282">
	<stop  offset="0" style="stop-color:#3B38BF"/>
	<stop  offset="1" style="stop-color:#3B38BF;stop-opacity:0"/>
</linearGradient>
<path class="st4" d="M417.4,223.7c-0.3-2.1-0.7-4.2-1.1-6.3c0,0,0,0,0,0c-0.3-1.7-0.7-3.4-1.1-5.1c0,0,0-0.1,0-0.1
	c-11.4-49.4-43.4-92.1-89-116.6C271.1,66.2,204.6,67.8,151,99.9c-2.8,1.3-4.6,4-4.7,7.1c-0.1,3.1,1.6,5.9,4.3,7.4
	c2.7,1.4,6,1.2,8.5-0.6c48.6-29.3,109-30.9,159.1-4.2c33.6,17.9,59.3,46.8,73.3,81.1l0,0c1.8,4.3,3.3,8.6,4.7,13c0,0.1,0,0.1,0,0.2
	c0.4,1.3,0.8,2.6,1.2,3.9c0.2,0.7,0.4,1.5,0.6,2.2c0.2,0.6,0.3,1.2,0.5,1.8c1.1,4.3,2.1,8.7,2.8,13.2c0,0,0,0,0,0
	c0.1,0.5,0.2,1,0.3,1.5c0.2,3.1,2.2,5.7,5,6.9c2.9,1.1,6.1,0.6,8.4-1.5C417.4,229.9,418.3,226.7,417.4,223.7z"/>
</svg>
