<?xml version="1.0" encoding="utf-8"?>
<!-- Generator: Adobe Illustrator 23.0.5, SVG Export Plug-In . SVG Version: 6.00 Build 0)  -->
<svg version="1.1" id="Outline" xmlns="http://www.w3.org/2000/svg" xmlns:xlink="http://www.w3.org/1999/xlink" x="0px" y="0px"
	 viewBox="0 0 512 512" style="enable-background:new 0 0 512 512;" xml:space="preserve">
<style type="text/css">
	.st0{fill:#FFFFFF;}
	.st1{fill:url(#SVGID_1_);}
	.st2{opacity:0.9;fill:#FFFFFF;}
	.st3{fill:url(#SVGID_2_);}
	.st4{opacity:0.1;fill:#FFFFFF;}
	.st5{fill:#6ABB9F;}
	.st6{fill:url(#SVGID_3_);}
	.st7{fill:url(#SVGID_4_);}
	.st8{fill:url(#SVGID_5_);}
	.st9{fill:url(#SVGID_6_);}
	.st10{fill:url(#SVGID_7_);}
</style>
<path class="st0" d="M172.4,350.1l-15.2,5c1.6,5,3.7,9.8,6,14.5l14.2-7.3C175.5,358.4,173.8,354.2,172.4,350.1L172.4,350.1z"/>
<path class="st0" d="M329.3,273.7c9.6,14.4,14.7,31.3,14.7,48.7c0,48.5-39.5,88-88,88c-28.2,0-55-13.7-71.5-36.7l-13,9.3
	c19.5,27.1,51.1,43.3,84.5,43.3c57.3,0,104-46.7,104-104c0-20.6-6-40.4-17.3-57.5L329.3,273.7z"/>
<linearGradient id="SVGID_1_" gradientUnits="userSpaceOnUse" x1="120.3429" y1="1.3847" x2="119.7311" y2="160.1339">
	<stop  offset="0.2198" style="stop-color:#FFFFFF"/>
	<stop  offset="1" style="stop-color:#FFFFFF;stop-opacity:0"/>
</linearGradient>
<path class="st1" d="M203.3,90.4H168v-80h-16v96h12.7L120,151.1l-44.7-44.7H88v-64H72v48H36.7l83.3,83.3L203.3,90.4z"/>
<path class="st2" d="M72,10.4h16v16H72V10.4z"/>
<linearGradient id="SVGID_2_" gradientUnits="userSpaceOnUse" x1="391.9444" y1="21.3077" x2="392.0469" y2="148.7869">
	<stop  offset="0.2198" style="stop-color:#FFFFFF"/>
	<stop  offset="1" style="stop-color:#FFFFFF;stop-opacity:0"/>
</linearGradient>
<path class="st3" d="M344,154.4h16v-80h-12.7L392,29.7l44.7,44.7H424v48h16v-32h35.3L392,7.1l-83.3,83.3H344V154.4z"/>
<path class="st4" d="M424,138.4h16v16h-16V138.4z"/>
<path class="st5" d="M480,122.3c-13.3,0-24,10.8-24,24c0,4.5,1.3,8.8,3.4,12.4l-43.1,52.9c-2.6-1-5.4-1.5-8.3-1.5
	c-9.5,0-17.7,5.5-21.6,13.5l-58.5-9.3c-1.9-11.4-11.8-20.1-23.7-20.1c-13.3,0-24,10.8-24,24c0,7.3,3.2,13.8,8.3,18.2l-30.2,62.1
	c-0.7-0.1-1.4-0.1-2.1-0.1c-7.1,0-13.6,3.1-18,8.1l0.3-0.8l-62.4-25.3c-0.9-12.5-11.3-22.3-24-22.3c-7.3,0-13.8,3.2-18.2,8.4
	l-77.6-31.4c0-0.3,0-0.6,0-0.9c0-13.3-10.8-24-24-24c-13.3,0-24,10.8-24,24c0,13.3,10.8,24,24,24c7.3,0,13.8-3.2,18.2-8.3l77.7,31.4
	c0,0.3,0,0.5,0,0.8c0,13.3,10.8,24,24,24c8.2,0,15.4-4.1,19.7-10.3l60.4,24.4c-0.1,0.7-0.1,1.4-0.1,2.1c0,13.3,10.8,24,24,24
	c13.3,0,24-10.8,24-24c0-6.8-2.8-12.9-7.4-17.3l30.6-62.9c0.3,0,0.5,0,0.8,0c9,0,16.8-4.9,21-12.2l59.5,9.5
	c2.4,10.7,12,18.7,23.4,18.7c13.3,0,24-10.8,24-24c0-4.5-1.2-8.7-3.4-12.3l43.1-53c2.6,0.9,5.4,1.5,8.3,1.5c13.3,0,24-10.8,24-24
	C504,133.1,493.2,122.3,480,122.3z M32,242.4c-4.4,0-8-3.6-8-8s3.6-8,8-8s8,3.6,8,8S36.5,242.4,32,242.4z M151.9,290.7
	c-4.4,0-8-3.6-8-8s3.6-8,8-8s8,3.6,8,8S156.4,290.7,151.9,290.7z M256,330.9c-4.4,0-8-3.6-8-8s3.6-8,8-8s8,3.6,8,8
	S260.4,330.9,256,330.9z M304.1,226.7c-4.4,0-8-3.6-8-8s3.6-8,8-8s8,3.6,8,8S308.5,226.7,304.1,226.7z M408,242.6c-4.4,0-8-3.6-8-8
	s3.6-8,8-8s8,3.6,8,8S412.4,242.6,408,242.6z M480,154.7c-4.4,0-8-3.6-8-8s3.6-8,8-8s8,3.6,8,8S484.4,154.7,480,154.7z"/>
<linearGradient id="SVGID_3_" gradientUnits="userSpaceOnUse" x1="253.6842" y1="224.8212" x2="255.7657" y2="530.3381">
	<stop  offset="0.2198" style="stop-color:#FFFFFF"/>
	<stop  offset="1" style="stop-color:#FFFFFF;stop-opacity:0"/>
</linearGradient>
<path class="st6" d="M420.5,281l-23.2-3.9c-1.7-0.3-3.1-1.5-3.7-3.2c-0.6-1.8-1.2-3.6-1.9-5.4c-0.7-2-2.7-3.2-4.8-3l-11.9,0.9
	c-3.1,0.2-5.1,3.5-4,6.4c2.1,5.1,3.8,10.3,5.2,15.7c1,4,4.3,7,8.4,7.7l32.5,5.5c1,0.2,1.7,1,1.7,2v32.6h-0.1c0,1-0.7,1.9-1.7,2
	l-32.5,5.4c-4.1,0.7-7.3,3.7-8.4,7.7c-2.9,11.4-7.4,22.3-13.5,32.4c-2.1,3.6-1.9,8,0.5,11.4l19.1,26.9c0.5,0.8,0.5,1.9-0.2,2.6
	l-23,23c-0.5,0.5-1.1,0.6-1.5,0.6c-0.5,0-0.9-0.2-1.2-0.4l-26.8-19.1c-3.3-2.4-7.8-2.6-11.4-0.5c-10.1,6-21,10.5-32.4,13.5
	c-4,1-7,4.3-7.7,8.4l-5.5,32.5c-0.2,1-1,1.7-2,1.7h-32.6c-1,0-1.9-0.7-2-1.7l-5.4-32.5c-0.7-4.1-3.7-7.3-7.7-8.4
	c-11.1-2.9-21.7-7.3-31.7-13c-1.6-0.9-3.5-1.4-5.3-1.4c-2.1,0-4.3,0.6-6,1.9l-27.1,19.3c-0.4,0.2-0.8,0.4-1.2,0.4
	c-0.3,0-0.9-0.1-1.5-0.6l-23-23c-0.7-0.7-0.8-1.8-0.2-2.6l19-26.7c2.4-3.4,2.6-7.9,0.5-11.4c-6-10.1-10.7-21-13.6-32.3
	c-1.1-3.9-4.3-7-8.4-7.7l-32.7-5.6c-1-0.2-1.7-1-1.7-2v-32.6c0-1,0.7-1.9,1.7-2l4.3-0.7c1-0.2,2-0.6,2.6-1.4c0.5-0.6,0.9-1.4,1-2.5
	l-1.1-10.6c-0.1-1.3-1-3.4-2-4.2l-1.3-0.8c-1-0.8-3-1-4.2-0.7l-2.8,0.5c-11.1,1.9-19.1,11.4-19.1,22.6v32.6c0,11.2,8,20.7,19.1,22.6
	l23.5,4c1.3,1.1,2.3,2,3.7,3.2c2.3,6.8,5.1,13.5,8.4,19.9c-0.1,1.8-0.2,3.1-0.3,4.9L110,410.3c-6.5,9.1-5.5,21.6,2.5,29.5l23,23
	c4.3,4.3,10.1,6.7,16.2,6.7c4.8,0,9.4-1.5,13.2-4.3l19.4-13.8c1.7-0.1,3.1-0.2,4.8-0.4c6.2,3.1,12.6,5.7,19.2,7.9
	c1.1,1.3,2,2.4,3.2,3.7l3.9,23.2c1.9,11.1,11.4,19.1,22.6,19.1h32.6c11.2,0,20.7-8,22.6-19.1l3.9-23.2c1.1-1.3,2-2.3,3.2-3.7
	c6.9-2.3,13.5-5,20-8.3c1.7,0.1,3.1,0.2,4.9,0.4l19.1,13.6c3.9,2.8,8.5,4.3,13.3,4.3c6.1,0,11.8-2.4,16.2-6.7l23-23
	c7.9-7.9,9-20.3,2.5-29.5l-13.7-19.2c-0.1-1.7-0.2-3.1-0.4-4.8c3.2-6.5,6-13.1,8.3-19.9c1.3-1.2,2.4-2,3.7-3.2l23.2-3.9
	c11.1-1.9,19.1-11.4,19.1-22.6v-32.6C439.6,292.4,431.5,282.9,420.5,281z"/>
<g>
	<linearGradient id="SVGID_4_" gradientUnits="userSpaceOnUse" x1="237.3135" y1="290.7792" x2="236.9219" y2="240.2938">
		<stop  offset="0.2198" style="stop-color:#FFFFFF"/>
		<stop  offset="1" style="stop-color:#FFFFFF;stop-opacity:0"/>
	</linearGradient>
	<path class="st7" d="M207.3,283.9l8.4,4.5c1.7,0.9,3.7,0.6,5-0.8c9.1-9.5,22-15.2,36.3-14.3c1.1,0.1,2.2,0.2,3.3,0.3
		c1.8,0.2,3.5-0.7,4.2-2.3l3.8-8.2c1-2.3-0.3-5-2.8-5.4c-2.8-0.5-5.7-0.8-8.7-1c-20.2-0.8-38.5,8-50.6,22.2
		C205,280.5,205.5,282.9,207.3,283.9z"/>
	<linearGradient id="SVGID_5_" gradientUnits="userSpaceOnUse" x1="254.912" y1="389.6001" x2="253.5957" y2="219.9071">
		<stop  offset="0.2198" style="stop-color:#FFFFFF"/>
		<stop  offset="1" style="stop-color:#FFFFFF;stop-opacity:0"/>
	</linearGradient>
	<path class="st8" d="M293.7,277.2l-4.3,7.6c-0.9,1.6-0.7,3.6,0.5,5c6.5,7.7,10.6,17.5,11,28.1c1.1,26.6-20.2,48.5-46.6,48.5
		c-25.7,0-46.6-20.9-46.6-46.6v0c0-0.9-0.6-1.8-1.5-2l-11-3.4c-1.9-0.6-3.9,0.8-4,2.8c0,0.9-0.1,1.8-0.1,2.7
		c0,34.8,28.3,63.1,63.1,63.1c35.2,0,63.7-28.9,63.1-64.2c-0.3-16.3-6.9-31.2-17.4-42.4C298.2,274.5,295,274.9,293.7,277.2z"/>
</g>
<linearGradient id="SVGID_6_" gradientUnits="userSpaceOnUse" x1="200.5222" y1="122.182" x2="200.5222" y2="333.0955">
	<stop  offset="0.2198" style="stop-color:#FFFFFF"/>
	<stop  offset="1" style="stop-color:#FFFFFF;stop-opacity:0"/>
</linearGradient>
<path class="st9" d="M292.6,177.9l-10.5,2c-3.3,0.6-6.5-1.6-7.1-4.9l-3-17.8c-0.2-1-1-1.7-2-1.7h-32.6c-1,0-1.9,0.7-2,1.7l-5.6,32.7
	c-0.7,4-3.7,7.3-7.7,8.4c-11.4,2.9-22.3,7.6-32.3,13.6c-3.6,2.1-8,1.9-11.4-0.5l-26.7-19c-0.3-0.2-0.7-0.4-1.2-0.4
	c-0.4,0-0.9,0.1-1.5,0.6l-23,23c-0.7,0.7-0.8,1.9-0.2,2.6l0.3,0.4c3.2,4.5-0.2,7.9-4.6,11.3c-0.2,0.1-0.3,0.3-0.5,0.4l-1,0.9
	c-0.2,0.2-0.4,0.3-0.5,0.5c-4.5,3.4-7.1,3.8-10.5-0.9l-0.4-0.5c-6.5-9.1-5.4-21.6,2.5-29.5l23.1-23c4.3-4.3,10.1-6.7,16.2-6.7
	c4.8,0,9.4,1.5,13.3,4.3l13.2,9.5c4.8,3.4,11,4.1,16.4,1.7c2.7-1.2,5.5-2.4,8.2-3.5c5.4-2.1,9.2-6.9,10.2-12.6l2.8-16.7
	c1.9-11.1,11.4-19.1,22.6-19.1h32.6c11.2,0,20.7,8,22.6,19.1l3.8,18.4C296.9,174.9,295.2,177.4,292.6,177.9z"/>
<linearGradient id="SVGID_7_" gradientUnits="userSpaceOnUse" x1="360.7493" y1="166.0649" x2="360.7493" y2="244.5228">
	<stop  offset="0.2198" style="stop-color:#FFFFFF"/>
	<stop  offset="1" style="stop-color:#FFFFFF;stop-opacity:0"/>
</linearGradient>
<path class="st10" d="M387.3,190.9l-13.4-13.4c-4.3-4.3-10.1-6.7-16.2-6.7c-4.8,0-9.4,1.5-13.2,4.3l-10.2,7.2
	c-2.1,1.5-2.6,4.4-1,6.5l7.5,10.2c1.1,1.5,3.3,1.9,4.9,0.8l10.9-7.8c0.4-0.2,0.8-0.4,1.2-0.4c0.3,0,0.9,0.1,1.5,0.6l13.8,13.8
	c2.6,2.6,6.8,2.5,9.3-0.2l5.4-6C389.8,197.2,389.7,193.4,387.3,190.9z"/>
</svg>
