<?xml version="1.0" encoding="utf-8"?>
<!-- Generator: Adobe Illustrator 23.0.5, SVG Export Plug-In . SVG Version: 6.00 Build 0)  -->
<svg version="1.1" id="Outline" xmlns="http://www.w3.org/2000/svg" xmlns:xlink="http://www.w3.org/1999/xlink" x="0px" y="0px"
	 viewBox="0 0 512 512" style="enable-background:new 0 0 512 512;" xml:space="preserve">
<style type="text/css">
	.st0{opacity:0.9;fill:#FFFFFF;}
	.st1{fill:url(#SVGID_1_);}
	.st2{fill:url(#SVGID_2_);}
	.st3{fill:url(#SVGID_3_);}
	.st4{fill:url(#SVGID_4_);}
	.st5{fill:url(#SVGID_5_);}
	.st6{fill:#FFFFFF;}
	.st7{fill:#6ABB9F;}
</style>
<path class="st0" d="M92,157.4l-13.6-8.3c-3.3,5.4-6.4,11-9.2,16.6l14.3,7.1C86,167.6,88.9,162.4,92,157.4z"/>
<linearGradient id="SVGID_1_" gradientUnits="userSpaceOnUse" x1="62.0588" y1="98.5623" x2="62.2858" y2="287.749">
	<stop  offset="0.1766" style="stop-color:#FFFFFF"/>
	<stop  offset="0.9262" style="stop-color:#FFFFFF;stop-opacity:8.962709e-02"/>
	<stop  offset="1" style="stop-color:#FFFFFF;stop-opacity:0"/>
</linearGradient>
<path class="st1" d="M61.8,182.3c-14.5,37.1-17.9,77.5-9.9,116.5l15.7-3.2c-7.4-35.9-4.2-73.3,9.1-107.5L61.8,182.3z"/>
<linearGradient id="SVGID_2_" gradientUnits="userSpaceOnUse" x1="456.2582" y1="102.4835" x2="184.3768" y2="86.22">
	<stop  offset="0.1766" style="stop-color:#FFFFFF"/>
	<stop  offset="0.9262" style="stop-color:#FFFFFF;stop-opacity:8.962709e-02"/>
	<stop  offset="1" style="stop-color:#FFFFFF;stop-opacity:0"/>
</linearGradient>
<path class="st2" d="M423.2,33.4c-3-1.4-6.6-0.7-8.9,1.6l-23.6,23.6C304,0,189.2,4.2,107,69.1l9.9,12.5c78.6-62,188.7-64.4,269.9-6
	c3.2,2.3,7.6,2,10.3-0.8l13.5-13.5l-4.9,83.4l-83.4,4.9l11.2-11.2c1.8-1.8,2.6-4.2,2.3-6.7c-0.3-2.5-1.8-4.6-3.9-5.9
	c-50.1-28.8-112.2-26.9-160.4,5l8.9,13.3c40-26.5,90.9-30.1,134.2-9.4l-18.4,18.4c-2.3,2.3-3,5.7-1.7,8.7c1.2,3,4.2,4.9,7.4,4.9
	c0.2,0,0.3,0,0.5,0l111.5-6.6c4-0.2,7.3-3.5,7.5-7.5l6.6-111.5C428.1,37.9,426.2,34.8,423.2,33.4z"/>
<linearGradient id="SVGID_3_" gradientUnits="userSpaceOnUse" x1="83.924" y1="422.5411" x2="325.7796" y2="422.5411">
	<stop  offset="0.1766" style="stop-color:#FFFFFF"/>
	<stop  offset="0.9262" style="stop-color:#FFFFFF;stop-opacity:8.962709e-02"/>
	<stop  offset="1" style="stop-color:#FFFFFF;stop-opacity:0"/>
</linearGradient>
<path class="st3" d="M396.6,451.6l-9.4-12.9c-78.1,56.8-184,56.9-262.2,0.2c-3.2-2.3-7.6-2-10.3,0.8l-13.5,13.5l4.9-83.4l83.4-4.9
	L178.3,376c-1.8,1.8-2.6,4.2-2.3,6.7c0.3,2.5,1.8,4.6,3.9,5.9c50,28.7,111.9,26.9,160.1-4.8l-8.9-13.3
	c-39.9,26.3-90.7,29.7-133.9,9.2l18.4-18.4c2.3-2.4,2.9-5.9,1.6-8.9c-1.4-3-4.4-4.9-7.7-4.7L98,354.2c-4,0.2-7.3,3.5-7.5,7.5
	l-6.6,111.5c-0.2,3.3,1.7,6.4,4.7,7.8c3,1.4,6.6,0.7,8.9-1.6l23.6-23.6C204.6,512.7,314.8,511.1,396.6,451.6L396.6,451.6z"/>
<linearGradient id="SVGID_4_" gradientUnits="userSpaceOnUse" x1="77.2276" y1="97.2864" x2="104.797" y2="330.621">
	<stop  offset="0.1766" style="stop-color:#FFFFFF"/>
	<stop  offset="0.9262" style="stop-color:#FFFFFF;stop-opacity:8.962709e-02"/>
	<stop  offset="1" style="stop-color:#FFFFFF;stop-opacity:0"/>
</linearGradient>
<path class="st4" d="M65.7,403.4l12.7-9.8c-60-78.6-61.6-187.1-4-267.4c2.3-3.2,2-7.6-0.8-10.3L60,102.4l83.4,4.9l4.9,83.4
	l-11.2-11.2c-1.8-1.8-4.2-2.6-6.7-2.3c-2.5,0.3-4.6,1.8-5.9,3.9c-28.8,50.1-26.9,112.2,5,160.4l13.3-8.9c-26.5-40-30-90.9-9.4-134.2
	l18.4,18.4c2.4,2.3,5.9,3,8.9,1.6c3-1.4,4.9-4.5,4.7-7.8L159,99.3c-0.2-4-3.5-7.3-7.5-7.5L39.9,85.2c-3.3-0.2-6.4,1.7-7.8,4.7
	c-1.4,3-0.7,6.6,1.7,9l23.6,23.6C-0.3,208.2,3,321.2,65.7,403.4z"/>
<linearGradient id="SVGID_5_" gradientUnits="userSpaceOnUse" x1="421.8258" y1="468.7411" x2="420.7234" y2="190.3668">
	<stop  offset="0.1766" style="stop-color:#FFFFFF"/>
	<stop  offset="0.9262" style="stop-color:#FFFFFF;stop-opacity:8.962709e-02"/>
	<stop  offset="1" style="stop-color:#FFFFFF;stop-opacity:0"/>
</linearGradient>
<path class="st5" d="M363.6,323.6l11.2,11.2c1.8,1.8,4.2,2.6,6.7,2.3c2.5-0.3,4.6-1.8,5.9-3.9c27.2-47,27.2-104.9,0.2-152l-13.8,8
	c22.3,38.9,24.1,86.2,4.7,126.7l-18.4-18.4c-2.4-2.3-5.9-2.9-8.9-1.6c-3,1.4-4.9,4.4-4.7,7.7l6.6,111.5c0.2,4,3.5,7.3,7.5,7.5
	l111.5,6.6h0.5c3.2,0,6.1-2,7.4-4.9c1.2-3,0.6-6.4-1.7-8.7l-23.6-23.6c57.8-85.7,54.4-198.8-8.3-280.9l-12.7,9.8
	c60,78.6,61.6,187.1,4,267.4c-2.3,3.2-2,7.6,0.8,10.3l13.4,13.5l-83.4-4.9L363.6,323.6z"/>
<path class="st6" d="M256,297.2c22.1,0,40-17.9,40-40c0-22.1-17.9-40-40-40s-40,17.9-40,40C216,279.3,233.9,297.2,256,297.2z
	 M256,233.2c13.2,0,24,10.7,24,24c0,13.2-10.7,24-24,24s-24-10.7-24-24C232,243.9,242.7,233.2,256,233.2z"/>
<path class="st7" d="M168,233.2c-4.4,0-8,3.6-8,8v32c0,4.4,3.6,8,8,8h11.7c1.4,4.5,3.2,8.8,5.4,12.9l-8.3,8.3
	c-3.1,3.1-3.1,8.2,0,11.3l22.6,22.6c3.1,3.1,8.2,3.1,11.3,0l8.3-8.3c4.2,2.2,8.5,4,12.9,5.4v11.7c0,4.4,3.6,8,8,8h32
	c4.4,0,8-3.6,8-8v-11.7c4.5-1.4,8.8-3.2,12.9-5.4l8.3,8.3c3.1,3.1,8.2,3.1,11.3,0l22.6-22.6c3.1-3.1,3.1-8.2,0-11.3l-8.3-8.3
	c2.2-4.1,4-8.5,5.4-12.9h11.7c4.4,0,8-3.6,8-8v-32c0-4.4-3.6-8-8-8h-11.7c-1.4-4.5-3.2-8.8-5.4-12.9l8.3-8.3c3.1-3.1,3.1-8.2,0-11.3
	L312.5,178c-3.1-3.1-8.2-3.1-11.3,0l-8.3,8.3c-4.2-2.2-8.5-4-12.9-5.4v-11.7c0-4.4-3.6-8-8-8h-32c-4.4,0-8,3.6-8,8V181
	c-4.5,1.4-8.8,3.2-12.9,5.4l-8.3-8.3c-3.1-3.1-8.2-3.1-11.3,0l-22.6,22.6c-3.1,3.1-3.1,8.2,0,11.3l8.3,8.3c-2.2,4.2-4,8.5-5.4,12.9
	H168z M185.8,249.2c3.7,0,7-2.6,7.8-6.2c1.6-7,4.4-13.7,8.2-19.8c2-3.2,1.5-7.3-1.1-9.9l-7-7l11.3-11.3l7,7c2.6,2.6,6.8,3.1,9.9,1.1
	c6.1-3.8,12.8-6.6,19.8-8.2c3.6-0.8,6.2-4.1,6.2-7.8v-9.8h16v9.8c0,3.7,2.6,7,6.2,7.8c7,1.6,13.7,4.4,19.8,8.2
	c3.2,2,7.3,1.5,9.9-1.1l7-7l11.3,11.3l-7,7c-2.6,2.6-3.1,6.8-1.1,9.9c3.8,6.1,6.6,12.8,8.2,19.8c0.8,3.6,4.1,6.2,7.8,6.2h9.8v16
	h-9.8c-3.7,0-7,2.6-7.8,6.2c-1.6,7-4.4,13.7-8.2,19.8c-2,3.2-1.5,7.3,1.1,9.9l7,7l-11.3,11.3l-7-7c-2.6-2.6-6.8-3.1-9.9-1.1
	c-6.1,3.8-12.8,6.6-19.8,8.2c-3.6,0.8-6.2,4.1-6.2,7.8v9.8h-16v-9.8c0-3.7-2.6-7-6.2-7.8c-7-1.6-13.7-4.4-19.8-8.2
	c-3.2-2-7.3-1.5-9.9,1.1l-7,7l-11.3-11.3l7-7c2.6-2.6,3.1-6.8,1.1-9.9c-3.8-6.1-6.6-12.8-8.2-19.8c-0.8-3.6-4.1-6.2-7.8-6.2H176v-16
	H185.8z"/>
</svg>
